<svg width="1407" height="293" viewBox="0 0 1407 293" fill="none" xmlns="http://www.w3.org/2000/svg">
<g filter="url(#filter0_d_119_2)">
<path d="M45.6541 64.4514L13.6757 1H78L103.73 51.8343L131.665 1H146L110.346 65.3657L142.324 129H78L52.4541 77.9829L24.1514 129H10L45.6541 64.4514Z" fill="url(#paint0_linear_119_2)" shape-rendering="crispEdges"/>
<path d="M78.3076 0.5L78.4463 0.774414L103.748 50.7627L131.227 0.758789L131.369 0.5H146.849L146.438 1.24219L110.911 65.377L142.771 128.775L143.135 129.5H77.6914L77.5527 129.224L52.4307 79.0547L24.5889 129.242L24.4453 129.5H9.15234L9.5625 128.758L45.0889 64.4404L13.2295 1.22461L12.8643 0.5H78.3076Z" stroke="black" shape-rendering="crispEdges"/>
</g>
<path d="M177.056 130.44C170.592 130.44 164.896 129.032 159.968 126.216C155.104 123.336 151.296 119.368 148.544 114.312C145.856 109.256 144.512 103.432 144.512 96.84C144.512 91.976 145.312 87.528 146.912 83.496C148.576 79.4 150.848 75.848 153.728 72.84C156.672 69.832 160.096 67.496 164 65.832C167.968 64.168 172.288 63.336 176.96 63.336C179.584 63.336 182.528 63.656 185.792 64.296C189.056 64.872 192.288 66.088 195.488 67.944L195.872 81.864H189.92L188 70.728C186.272 69.768 184.576 69.096 182.912 68.712C181.312 68.328 179.744 68.136 178.208 68.136C173.92 68.136 170.016 69.224 166.496 71.4C162.976 73.576 160.16 76.808 158.048 81.096C156 85.32 154.976 90.568 154.976 96.84C154.976 103.112 155.936 108.392 157.856 112.68C159.776 116.968 162.432 120.2 165.824 122.376C169.28 124.552 173.184 125.64 177.536 125.64C179.392 125.64 181.28 125.448 183.2 125.064C185.184 124.616 187.104 123.944 188.96 123.048L190.88 111.912H196.832L196.448 125.832C193.504 127.432 190.368 128.584 187.04 129.288C183.776 130.056 180.448 130.44 177.056 130.44ZM202.963 129V125.544L210.643 124.2C210.707 121.576 210.739 119.016 210.739 116.52C210.803 113.96 210.835 111.4 210.835 108.84V66.696L202.963 65.736V62.376L217.939 58.056L219.283 58.824L218.899 72.456V108.84C218.899 111.4 218.899 113.96 218.899 116.52C218.963 119.08 219.027 121.64 219.091 124.2L226.771 125.544V129H202.963ZM268.155 129.96C265.851 129.96 263.931 129.288 262.395 127.944C260.859 126.6 259.899 124.808 259.515 122.568C256.891 125.128 254.587 127.048 252.603 128.328C250.619 129.608 248.219 130.248 245.403 130.248C241.883 130.248 238.843 129.256 236.283 127.272C233.787 125.224 232.539 122.216 232.539 118.248C232.539 116.392 232.955 114.664 233.787 113.064C234.683 111.464 236.283 109.896 238.587 108.36C240.891 106.824 244.187 105.288 248.475 103.752C249.947 103.24 251.643 102.696 253.563 102.12C255.483 101.544 257.403 101.032 259.323 100.584V98.184C259.323 93.512 258.619 90.408 257.211 88.872C255.803 87.336 253.499 86.568 250.299 86.568C249.595 86.568 248.795 86.6 247.899 86.664C247.067 86.728 246.139 86.888 245.115 87.144L243.291 93.384C242.395 96.456 240.731 97.992 238.299 97.992C235.611 97.992 234.107 96.68 233.787 94.056C234.683 90.408 236.795 87.528 240.123 85.416C243.515 83.24 247.643 82.152 252.507 82.152C257.563 82.152 261.307 83.432 263.739 85.992C266.171 88.488 267.387 92.776 267.387 98.856V119.304C267.387 121.352 267.707 122.824 268.347 123.72C268.987 124.552 269.819 124.968 270.843 124.968C271.675 124.968 272.379 124.776 272.955 124.392C273.531 124.008 274.075 123.496 274.587 122.856L276.507 124.968C275.355 126.824 274.075 128.136 272.667 128.904C271.323 129.608 269.819 129.96 268.155 129.96ZM241.083 116.808C241.083 119.368 241.819 121.192 243.291 122.28C244.763 123.368 246.587 123.912 248.763 123.912C249.723 123.912 250.619 123.784 251.451 123.528C252.347 123.272 253.403 122.792 254.619 122.088C255.835 121.32 257.403 120.232 259.323 118.824V104.136C257.659 104.584 256.027 105.096 254.427 105.672C252.827 106.184 251.515 106.632 250.491 107.016C247.739 108.104 245.691 109.224 244.347 110.376C243.003 111.528 242.107 112.648 241.659 113.736C241.275 114.824 241.083 115.848 241.083 116.808ZM280.626 129V125.544L287.538 124.296C287.602 121.864 287.634 119.24 287.634 116.424C287.698 113.544 287.73 111.016 287.73 108.84V104.232C287.73 101.608 287.698 99.432 287.634 97.704C287.634 95.976 287.57 94.152 287.442 92.232L279.858 91.368V88.008L293.298 82.152L294.738 83.112L295.794 94.44C297.394 90.6 299.442 87.592 301.938 85.416C304.498 83.24 307.058 82.152 309.618 82.152C311.09 82.152 312.466 82.472 313.746 83.112C315.026 83.752 315.954 84.616 316.53 85.704C316.53 90.376 314.642 92.712 310.866 92.712C309.778 92.712 308.754 92.52 307.794 92.136C306.834 91.688 305.906 91.08 305.01 90.312L303.858 89.256C301.938 90.664 300.338 92.392 299.058 94.44C297.778 96.488 296.722 98.888 295.89 101.64V108.84C295.89 110.952 295.89 113.416 295.89 116.232C295.954 119.048 296.018 121.672 296.082 124.104L303.954 125.544V129H280.626ZM320.548 129V125.544L327.748 124.2C327.812 121.768 327.844 119.144 327.844 116.328C327.908 113.448 327.94 110.952 327.94 108.84V104.328C327.94 101.704 327.908 99.528 327.844 97.8C327.844 96.008 327.78 94.152 327.652 92.232L319.972 91.368V88.008L334.756 82.152L336.196 83.112L335.908 96.168V108.84C335.908 110.952 335.908 113.448 335.908 116.328C335.972 119.144 336.036 121.768 336.1 124.2L342.82 125.544V129H320.548ZM331.876 71.592C330.084 71.592 328.548 71.016 327.268 69.864C326.052 68.712 325.444 67.24 325.444 65.448C325.444 63.592 326.052 62.12 327.268 61.032C328.548 59.88 330.084 59.304 331.876 59.304C333.668 59.304 335.172 59.88 336.388 61.032C337.668 62.12 338.308 63.592 338.308 65.448C338.308 67.24 337.668 68.712 336.388 69.864C335.172 71.016 333.668 71.592 331.876 71.592ZM365.461 130.248C362.133 130.248 359.477 129.352 357.493 127.56C355.509 125.768 354.517 123.016 354.517 119.304C354.517 118.088 354.517 116.904 354.517 115.752C354.581 114.536 354.613 113 354.613 111.144V88.488H346.645V84.264L355.189 83.208L357.685 70.344H363.445L362.869 83.4H375.829V88.488H362.773V118.248C362.773 120.68 363.253 122.472 364.213 123.624C365.173 124.712 366.453 125.256 368.053 125.256C369.141 125.256 370.165 125.032 371.125 124.584C372.149 124.136 373.269 123.496 374.485 122.664L376.789 125.16C374.165 128.552 370.389 130.248 365.461 130.248ZM407.432 86.856V83.4H426.152V86.856L420.968 87.912L405.512 128.712C402.312 137.224 399.208 143.368 396.2 147.144C393.256 150.984 389.8 152.904 385.832 152.904C383.464 152.904 381.384 152.296 379.592 151.08C377.864 149.928 377 148.424 377 146.568C377.32 145.16 378.088 144.104 379.304 143.4C380.584 142.696 381.96 142.344 383.432 142.344C384.712 142.344 385.896 142.6 386.984 143.112C388.072 143.688 389.256 144.648 390.536 145.992L391.016 146.472C393.064 144.744 394.792 142.632 396.2 140.136C397.608 137.704 398.76 135.208 399.656 132.648L400.04 131.496L382.664 87.624L377.384 86.856V83.4H400.424V86.952L391.976 87.912L403.976 120.648L415.784 88.008L407.432 86.856Z" fill="black"/>
<path d="M20.3438 250.281C20.0938 250.031 19.9688 249.562 19.9688 248.875C19.9688 248 20.0938 247.562 20.3438 247.562C20.9062 247.562 21.6562 247.5 22.5938 247.375C23.5312 247.188 24.4062 246.938 25.2188 246.625C26.0312 246.312 26.5 246 26.625 245.688C26.875 244.812 27.0312 243.688 27.0938 242.312C27.2188 240.938 27.2812 239.281 27.2812 237.344V203.406C27.2812 197.969 27 194.75 26.4375 193.75C26 192.812 22.625 192.344 16.3125 192.344C13.9375 192.344 12.0938 192.562 10.7812 193C9.46875 193.375 8.46875 194.156 7.78125 195.344C7.09375 196.531 6.4375 198.312 5.8125 200.688C5.6875 201 5.375 201.156 4.875 201.156C3.8125 201.156 3.0625 200.938 2.625 200.5L4.40625 187.094C5.78125 187.406 7 187.656 8.0625 187.844C9.125 188.031 10.0625 188.125 10.875 188.125C15.375 188.125 19.3438 188.188 22.7812 188.312C26.2188 188.438 29.0938 188.5 31.4062 188.5C36.2188 188.5 40.3438 188.438 43.7812 188.312C47.2812 188.188 50.0312 188.125 52.0312 188.125C52.8438 188.125 53.7812 188.031 54.8438 187.844C55.9062 187.656 57.125 187.406 58.5 187.094L60.2812 200.5C59.8438 200.938 59.0938 201.156 58.0312 201.156C57.5312 201.156 57.2188 201 57.0938 200.688C56.5312 198.312 55.875 196.531 55.125 195.344C54.4375 194.156 53.4375 193.375 52.125 193C50.8125 192.562 48.9688 192.344 46.5938 192.344C40.0312 192.344 36.5938 192.812 36.2812 193.75C35.7188 195.688 35.4375 198.812 35.4375 203.125V236.969C35.4375 240.594 35.7188 243.5 36.2812 245.688C36.4062 245.938 36.875 246.219 37.6875 246.531C38.5 246.844 39.375 247.094 40.3125 247.281C41.25 247.469 41.9062 247.562 42.2812 247.562C42.5312 247.562 42.6562 248.031 42.6562 248.969C42.6562 249.344 42.5938 249.781 42.4688 250.281C39.3438 250.156 36.875 250.062 35.0625 250C33.25 249.875 32.0938 249.812 31.5938 249.812L20.3438 250.281ZM89.625 250.75C89.125 250.75 88.875 250.25 88.875 249.25V244.469C88.875 244.156 88.8125 244 88.6875 244C84.5625 248.438 80.4688 250.656 76.4062 250.656C73.4688 250.656 71.125 249.812 69.375 248.125C67.6875 246.375 66.4688 244.188 65.7188 241.562C65.0312 238.875 64.6875 236.094 64.6875 233.219V221.406C64.6875 219.031 64.25 217.344 63.375 216.344C62.75 215.594 62 215.094 61.125 214.844C60.3125 214.594 59.5625 214.469 58.875 214.469C58.25 214.406 57.9375 214.312 57.9375 214.188C57.9375 212.688 58.125 211.906 58.5 211.844C61.8125 211.344 64.4688 210.906 66.4688 210.531C68.5312 210.094 69.7188 209.844 70.0312 209.781L71.9062 209.312C72.1562 209.25 72.3125 209.5 72.375 210.062C72.4375 210.625 72.4375 211.031 72.375 211.281C72 214.281 71.8125 216.594 71.8125 218.219V230.875C71.8125 235.688 72.5312 239.25 73.9688 241.562C75.4062 243.812 77.75 244.938 81 244.938C82.25 244.938 83.4688 244.594 84.6562 243.906C85.9062 243.219 86.9062 242.406 87.6562 241.469C88.4688 240.469 88.875 239.625 88.875 238.938V221.406C88.875 219.031 88.4375 217.344 87.5625 216.344C86.9375 215.594 86.1875 215.094 85.3125 214.844C84.5 214.594 83.75 214.438 83.0625 214.375C82.4375 214.312 82.125 214.25 82.125 214.188C82.125 212.688 82.3125 211.906 82.6875 211.844C86 211.344 88.4688 210.938 90.0938 210.625C91.7812 210.312 93.125 210.031 94.125 209.781L96.0938 209.312C96.3438 209.25 96.5 209.5 96.5625 210.062C96.625 210.625 96.625 211.031 96.5625 211.281C96.1875 214.281 96 216.531 96 218.031V236.781C96 239.594 96.2188 241.969 96.6562 243.906C96.8438 244.531 97.3438 244.938 98.1562 245.125C98.9688 245.25 99.9062 245.375 100.969 245.5L102.188 245.594C102.375 245.656 102.469 246 102.469 246.625C102.469 246.812 102.375 247.125 102.188 247.562C102.062 247.938 101.906 248.125 101.719 248.125C99.8438 248.25 97.7812 248.594 95.5312 249.156C93.2812 249.656 91.5938 250.125 90.4688 250.562L89.625 250.75ZM107.156 250.281C106.906 250.031 106.781 249.5 106.781 248.688C106.781 247.938 106.906 247.562 107.156 247.562C107.656 247.562 108.344 247.469 109.219 247.281C110.094 247.094 110.906 246.844 111.656 246.531C112.406 246.219 112.812 245.938 112.875 245.688C113.125 244.812 113.281 243.812 113.344 242.688C113.469 241.562 113.531 240.375 113.531 239.125V221.406C113.531 219.031 113.094 217.344 112.219 216.344C111.594 215.594 110.844 215.094 109.969 214.844C109.156 214.594 108.406 214.469 107.719 214.469C107.094 214.406 106.781 214.312 106.781 214.188C106.781 212.688 106.969 211.906 107.344 211.844C114.156 210.781 118.094 210.094 119.156 209.781L120.75 209.312C121 209.25 121.156 209.5 121.219 210.062C121.281 210.625 121.281 211.031 121.219 211.281L120.656 215.969C121.781 214.281 123.312 212.719 125.25 211.281C127.25 209.781 129.219 209.031 131.156 209.031C134.781 209.031 137.219 209.938 138.469 211.75C138.469 213.938 138.125 215.531 137.438 216.531C136.75 217.531 135.906 218.031 134.906 218.031C133.781 218.031 132.75 217.5 131.812 216.438C130.875 215.375 129.594 214.844 127.969 214.844C126.719 214.844 125.531 215.281 124.406 216.156C123.281 216.969 122.375 218.031 121.688 219.344C121.062 220.594 120.75 221.906 120.75 223.281V237.344C120.75 239.156 120.812 240.75 120.938 242.125C121.062 243.5 121.25 244.688 121.5 245.688C121.625 245.938 122.062 246.219 122.812 246.531C123.562 246.844 124.375 247.094 125.25 247.281C126.188 247.469 126.844 247.562 127.219 247.562C127.406 247.562 127.531 247.938 127.594 248.688C127.656 249.438 127.625 249.969 127.5 250.281L117.375 249.812L107.156 250.281ZM142.406 250.281C142.156 250.031 142.031 249.5 142.031 248.688C142.031 247.938 142.156 247.562 142.406 247.562C142.906 247.562 143.594 247.469 144.469 247.281C145.344 247.094 146.156 246.844 146.906 246.531C147.656 246.219 148.062 245.938 148.125 245.688C148.375 244.812 148.531 243.812 148.594 242.688C148.719 241.562 148.781 240.375 148.781 239.125V221.406C148.781 219.031 148.344 217.344 147.469 216.344C146.844 215.594 146.094 215.094 145.219 214.844C144.406 214.594 143.656 214.469 142.969 214.469C142.344 214.406 142.031 214.312 142.031 214.188C142.031 212.688 142.219 211.906 142.594 211.844C145.906 211.344 148.594 210.906 150.656 210.531C152.719 210.094 154 209.812 154.5 209.688L156 209.312C156.25 209.25 156.406 209.5 156.469 210.062C156.531 210.625 156.531 211.031 156.469 211.281C156.344 212.156 156.25 212.906 156.188 213.531C156.125 214.156 156.094 214.656 156.094 215.031C156.094 215.281 156.156 215.406 156.281 215.406C156.344 215.406 156.438 215.344 156.562 215.219C158 213.719 159.938 212.312 162.375 211C164.875 209.625 167.25 208.938 169.5 208.938C173.875 208.938 176.938 210.5 178.688 213.625C180.438 216.75 181.312 221.812 181.312 228.812V237.344C181.312 239.156 181.375 240.75 181.5 242.125C181.625 243.5 181.812 244.688 182.062 245.688C182.188 245.938 182.625 246.219 183.375 246.531C184.125 246.844 184.938 247.094 185.812 247.281C186.688 247.469 187.312 247.562 187.688 247.562C187.875 247.562 188 247.938 188.062 248.688C188.125 249.438 188.094 249.969 187.969 250.281L177.938 249.812L168.094 250.281C167.844 250.031 167.719 249.5 167.719 248.688C167.719 247.938 167.844 247.562 168.094 247.562C168.594 247.562 169.25 247.469 170.062 247.281C170.875 247.094 171.625 246.844 172.312 246.531C173 246.219 173.375 245.938 173.438 245.688C173.688 244.812 173.844 243.812 173.906 242.688C174.031 241.562 174.094 240.375 174.094 239.125V229.75C174.094 223.938 173.344 219.969 171.844 217.844C170.344 215.719 167.906 214.656 164.531 214.656C163.219 214.656 161.906 215.031 160.594 215.781C159.281 216.469 158.188 217.281 157.312 218.219C156.438 219.156 156 220.031 156 220.844V237.344C156 239.156 156.062 240.75 156.188 242.125C156.312 243.5 156.5 244.688 156.75 245.688C156.875 245.938 157.312 246.219 158.062 246.531C158.812 246.844 159.625 247.094 160.5 247.281C161.375 247.469 162 247.562 162.375 247.562C162.562 247.562 162.688 247.938 162.75 248.688C162.812 249.438 162.781 249.969 162.656 250.281L152.625 249.812L142.406 250.281ZM193.594 250.281C193.344 250.031 193.219 249.5 193.219 248.688C193.219 247.938 193.344 247.562 193.594 247.562C194.094 247.562 194.781 247.469 195.656 247.281C196.531 247.094 197.344 246.844 198.094 246.531C198.844 246.219 199.25 245.938 199.312 245.688C199.562 244.812 199.719 243.812 199.781 242.688C199.906 241.562 199.969 240.375 199.969 239.125V221.406C199.969 219.031 199.531 217.344 198.656 216.344C198.031 215.531 197.281 215.031 196.406 214.844C195.531 214.594 194.781 214.469 194.156 214.469C193.531 214.406 193.219 214.312 193.219 214.188C193.219 212.688 193.406 211.906 193.781 211.844C197.094 211.344 199.625 210.938 201.375 210.625C203.125 210.25 204.688 209.906 206.062 209.594L207.188 209.312C207.438 209.25 207.594 209.5 207.656 210.062C207.719 210.625 207.719 211.031 207.656 211.281C207.531 212.531 207.406 213.719 207.281 214.844C207.219 215.969 207.188 217.031 207.188 218.031V237.344C207.188 239.156 207.25 240.75 207.375 242.125C207.5 243.5 207.688 244.688 207.938 245.688C208.062 245.938 208.5 246.219 209.25 246.531C210 246.844 210.812 247.094 211.688 247.281C212.562 247.469 213.188 247.562 213.562 247.562C213.75 247.562 213.875 247.938 213.938 248.688C214 249.438 213.969 249.969 213.844 250.281L203.812 249.812L193.594 250.281ZM202.875 199.094C201.625 199.094 200.531 198.625 199.594 197.688C198.656 196.75 198.188 195.656 198.188 194.406C198.188 193.094 198.656 192 199.594 191.125C200.531 190.188 201.625 189.719 202.875 189.719C204.188 189.719 205.281 190.188 206.156 191.125C207.094 192 207.562 193.094 207.562 194.406C207.562 195.656 207.094 196.75 206.156 197.688C205.281 198.625 204.188 199.094 202.875 199.094ZM219.75 250.281C219.5 250.031 219.375 249.5 219.375 248.688C219.375 247.938 219.5 247.562 219.75 247.562C220.25 247.562 220.938 247.469 221.812 247.281C222.688 247.094 223.5 246.844 224.25 246.531C225 246.219 225.406 245.938 225.469 245.688C225.719 244.812 225.875 243.812 225.938 242.688C226.062 241.562 226.125 240.375 226.125 239.125V221.406C226.125 219.031 225.688 217.344 224.812 216.344C224.188 215.594 223.438 215.094 222.562 214.844C221.75 214.594 221 214.469 220.312 214.469C219.688 214.406 219.375 214.312 219.375 214.188C219.375 212.688 219.562 211.906 219.938 211.844C223.25 211.344 225.938 210.906 228 210.531C230.062 210.094 231.344 209.812 231.844 209.688L233.344 209.312C233.594 209.25 233.75 209.5 233.812 210.062C233.875 210.625 233.875 211.031 233.812 211.281C233.688 212.156 233.594 212.906 233.531 213.531C233.469 214.156 233.438 214.656 233.438 215.031C233.438 215.281 233.5 215.406 233.625 215.406C233.688 215.406 233.781 215.344 233.906 215.219C235.344 213.719 237.281 212.312 239.719 211C242.219 209.625 244.594 208.938 246.844 208.938C251.219 208.938 254.281 210.5 256.031 213.625C257.781 216.75 258.656 221.812 258.656 228.812V237.344C258.656 239.156 258.719 240.75 258.844 242.125C258.969 243.5 259.156 244.688 259.406 245.688C259.531 245.938 259.969 246.219 260.719 246.531C261.469 246.844 262.281 247.094 263.156 247.281C264.031 247.469 264.656 247.562 265.031 247.562C265.219 247.562 265.344 247.938 265.406 248.688C265.469 249.438 265.438 249.969 265.312 250.281L255.281 249.812L245.438 250.281C245.188 250.031 245.062 249.5 245.062 248.688C245.062 247.938 245.188 247.562 245.438 247.562C245.938 247.562 246.594 247.469 247.406 247.281C248.219 247.094 248.969 246.844 249.656 246.531C250.344 246.219 250.719 245.938 250.781 245.688C251.031 244.812 251.188 243.812 251.25 242.688C251.375 241.562 251.438 240.375 251.438 239.125V229.75C251.438 223.938 250.688 219.969 249.188 217.844C247.688 215.719 245.25 214.656 241.875 214.656C240.562 214.656 239.25 215.031 237.938 215.781C236.625 216.469 235.531 217.281 234.656 218.219C233.781 219.156 233.344 220.031 233.344 220.844V237.344C233.344 239.156 233.406 240.75 233.531 242.125C233.656 243.5 233.844 244.688 234.094 245.688C234.219 245.938 234.656 246.219 235.406 246.531C236.156 246.844 236.969 247.094 237.844 247.281C238.719 247.469 239.344 247.562 239.719 247.562C239.906 247.562 240.031 247.938 240.094 248.688C240.156 249.438 240.125 249.969 240 250.281L229.969 249.812L219.75 250.281ZM287.531 271.281C284.594 271.281 281.781 270.906 279.094 270.156C276.469 269.406 274.344 268.25 272.719 266.688C271.094 265.125 270.281 263.188 270.281 260.875C270.281 257 273.344 253.688 279.469 250.938C277.781 250.688 276.219 249.906 274.781 248.594C273.344 247.281 272.625 245.688 272.625 243.812C272.625 242.188 273.312 240.5 274.688 238.75C276.125 237 277.719 235.562 279.469 234.438C278.219 233.938 277 233.094 275.812 231.906C274.688 230.719 273.75 229.312 273 227.688C272.25 226.062 271.875 224.375 271.875 222.625C271.875 220.125 272.594 217.906 274.031 215.969C275.469 213.969 277.375 212.406 279.75 211.281C282.188 210.094 284.906 209.5 287.906 209.5C290.344 209.5 293 209.906 295.875 210.719C298.75 211.531 301.219 211.938 303.281 211.938H308.719C309.094 212 309.281 212.781 309.281 214.281C309.281 215.156 309.094 215.594 308.719 215.594H302.062C301.812 215.594 301.688 215.688 301.688 215.875L302.625 218.125C303.312 219.688 303.656 221.188 303.656 222.625C303.656 224.875 302.969 227 301.594 229C300.219 231 298.344 232.625 295.969 233.875C293.656 235.125 291.031 235.75 288.094 235.75C287.094 235.75 286.156 235.719 285.281 235.656C284.406 235.594 283.594 235.5 282.844 235.375C281.656 236.25 280.688 237.156 279.938 238.094C279.25 239.031 278.906 239.969 278.906 240.906C278.906 242.469 279.781 243.469 281.531 243.906C283.281 244.344 285.531 244.562 288.281 244.562C292.156 244.625 295.438 244.875 298.125 245.312C300.875 245.688 303.031 246.219 304.594 246.906C307.719 248.406 309.281 250.625 309.281 253.562C309.281 256.75 308.344 259.688 306.469 262.375C304.656 265.062 302.094 267.188 298.781 268.75C295.531 270.375 291.781 271.219 287.531 271.281ZM288 232.562C290.438 232.562 292.438 231.625 294 229.75C295.625 227.875 296.438 225.625 296.438 223C296.438 220.125 295.531 217.688 293.719 215.688C291.969 213.688 289.906 212.688 287.531 212.688C285.094 212.688 283.062 213.625 281.438 215.5C279.875 217.375 279.094 219.625 279.094 222.25C279.094 225.125 279.969 227.562 281.719 229.562C283.531 231.562 285.625 232.562 288 232.562ZM290.25 267.812C292.75 267.812 294.969 267.344 296.906 266.406C298.844 265.469 300.344 264.25 301.406 262.75C302.531 261.25 303.094 259.656 303.094 257.969C303.094 255.344 301.812 253.594 299.25 252.719C296.75 251.781 291.781 251.312 284.344 251.312C283.844 251.312 282.969 251.594 281.719 252.156C280.531 252.719 279.406 253.531 278.344 254.594C277.344 255.719 276.844 257.125 276.844 258.812C276.844 260.562 277.5 262.125 278.812 263.5C280.125 264.875 281.781 265.938 283.781 266.688C285.844 267.438 288 267.812 290.25 267.812ZM337.031 250.281C336.844 250.094 336.75 249.625 336.75 248.875C336.75 248 336.844 247.562 337.031 247.562C337.594 247.562 338.344 247.469 339.281 247.281C340.219 247.031 341.094 246.75 341.906 246.438C342.781 246.125 343.312 245.781 343.5 245.406C343.938 244.719 344.156 241.781 344.156 236.594V201.156C344.156 199.344 344.094 197.75 343.969 196.375C343.906 195 343.75 193.906 343.5 193.094C343.375 192.719 342.875 192.375 342 192.062C341.188 191.75 340.281 191.5 339.281 191.312C338.344 191.125 337.594 191.031 337.031 191.031C336.781 191.031 336.656 190.656 336.656 189.906C336.656 189.094 336.781 188.562 337.031 188.312C338.656 188.375 340.375 188.438 342.188 188.5C344.062 188.5 346.062 188.5 348.188 188.5L357.281 188.406C359.094 188.406 360.594 188.406 361.781 188.406C362.969 188.344 363.875 188.312 364.5 188.312C371.312 188.312 377.125 189.719 381.938 192.531C386.75 195.281 390.438 198.938 393 203.5C395.562 208.062 396.844 213.062 396.844 218.5C396.844 224.5 395.531 229.938 392.906 234.812C390.344 239.688 386.625 243.531 381.75 246.344C376.938 249.156 371.156 250.469 364.406 250.281L357.75 250.094C355.875 250.031 354.156 250 352.594 250C351.031 249.938 349.625 249.938 348.375 250L337.031 250.281ZM365.906 245.969C380.281 245.969 387.469 236.688 387.469 218.125C387.469 213.375 386.625 209.062 384.938 205.188C383.25 201.312 380.75 198.219 377.438 195.906C374.188 193.594 370.125 192.438 365.25 192.438H364.781C358.031 192.438 354.281 192.938 353.531 193.938C352.719 195 352.312 196.969 352.312 199.844V236.969C352.312 239.531 352.781 241.906 353.719 244.094C353.844 244.406 354.375 244.688 355.312 244.938C356.25 245.125 357.375 245.312 358.688 245.5C360.062 245.625 361.406 245.75 362.719 245.875C364.031 245.938 365.094 245.969 365.906 245.969ZM414.75 250.656C411.875 250.656 409.5 249.906 407.625 248.406C405.75 246.844 404.812 244.531 404.812 241.469C404.812 237.719 407.25 234.594 412.125 232.094C414.25 231.031 416.344 230.188 418.406 229.562C420.531 228.938 422.656 228.219 424.781 227.406C425.344 227.219 425.625 226.75 425.625 226V218.969C425.625 216.969 425 215.438 423.75 214.375C422.5 213.25 421 212.688 419.25 212.688C417.375 212.688 415.812 213.344 414.562 214.656C413.312 215.906 412.688 217.562 412.688 219.625C412.688 221.812 411.406 222.906 408.844 222.906C407.031 222.906 405.812 222.312 405.188 221.125C405.188 219.812 405.719 218.469 406.781 217.094C407.906 215.656 409.344 214.344 411.094 213.156C412.844 211.969 414.75 211 416.812 210.25C418.938 209.5 421.031 209.125 423.094 209.125C426.531 209.125 429 209.969 430.5 211.656C432 213.281 432.75 215.938 432.75 219.625V241.281C432.75 242.594 433.094 243.688 433.781 244.562C434.469 245.438 435.406 245.875 436.594 245.875C437.406 245.875 438.5 245.438 439.875 244.562C440.125 244.562 440.25 244.812 440.25 245.312C440.25 246.125 440.094 246.781 439.781 247.281C437.219 249.469 435.031 250.562 433.219 250.562C431.781 250.562 430.406 249.969 429.094 248.781C427.781 247.594 426.875 246.344 426.375 245.031C426.062 245.281 425.656 245.625 425.156 246.062C424.719 246.438 424.344 246.75 424.031 247C422.719 248 421.281 248.875 419.719 249.625C418.219 250.312 416.562 250.656 414.75 250.656ZM418.312 245.312C420.062 245.312 421.719 244.812 423.281 243.812C424.844 242.812 425.625 241.75 425.625 240.625V230.969C424 231.594 422.438 232.156 420.938 232.656C419.5 233.156 418.344 233.562 417.469 233.875C416.344 234.312 415.25 235.094 414.188 236.219C413.188 237.344 412.688 238.625 412.688 240.062C412.688 241.938 413.25 243.281 414.375 244.094C415.562 244.906 416.875 245.312 418.312 245.312ZM459.281 250.656C456.156 250.656 453.531 249.625 451.406 247.562C449.344 245.5 448.312 242.562 448.312 238.75V214.938H442.875C442.562 214.938 442.406 214.281 442.406 212.969C442.406 212.594 442.438 212.375 442.5 212.312C444.375 211.438 446.344 209.781 448.406 207.344C449.844 205.656 450.906 204.188 451.594 202.938C452.344 201.688 452.719 200.938 452.719 200.688C454.594 200.688 455.531 200.844 455.531 201.156V210.438L462.938 210.531H468.188C468.688 210.531 468.938 210.812 468.938 211.375C468.938 212.562 468.625 213.75 468 214.938H455.531V237.906C455.531 240.406 456.156 242.406 457.406 243.906C458.719 245.406 460.406 246.156 462.469 246.156C464.406 246.156 466.344 245.562 468.281 244.375C468.469 244.25 468.75 244.531 469.125 245.219C469.5 245.844 469.656 246.188 469.594 246.25C468.656 247.25 467.219 248.25 465.281 249.25C463.344 250.188 461.344 250.656 459.281 250.656ZM483.844 250.656C480.969 250.656 478.594 249.906 476.719 248.406C474.844 246.844 473.906 244.531 473.906 241.469C473.906 237.719 476.344 234.594 481.219 232.094C483.344 231.031 485.438 230.188 487.5 229.562C489.625 228.938 491.75 228.219 493.875 227.406C494.438 227.219 494.719 226.75 494.719 226V218.969C494.719 216.969 494.094 215.438 492.844 214.375C491.594 213.25 490.094 212.688 488.344 212.688C486.469 212.688 484.906 213.344 483.656 214.656C482.406 215.906 481.781 217.562 481.781 219.625C481.781 221.812 480.5 222.906 477.938 222.906C476.125 222.906 474.906 222.312 474.281 221.125C474.281 219.812 474.812 218.469 475.875 217.094C477 215.656 478.438 214.344 480.188 213.156C481.938 211.969 483.844 211 485.906 210.25C488.031 209.5 490.125 209.125 492.188 209.125C495.625 209.125 498.094 209.969 499.594 211.656C501.094 213.281 501.844 215.938 501.844 219.625V241.281C501.844 242.594 502.188 243.688 502.875 244.562C503.562 245.438 504.5 245.875 505.688 245.875C506.5 245.875 507.594 245.438 508.969 244.562C509.219 244.562 509.344 244.812 509.344 245.312C509.344 246.125 509.188 246.781 508.875 247.281C506.312 249.469 504.125 250.562 502.312 250.562C500.875 250.562 499.5 249.969 498.188 248.781C496.875 247.594 495.969 246.344 495.469 245.031C495.156 245.281 494.75 245.625 494.25 246.062C493.812 246.438 493.438 246.75 493.125 247C491.812 248 490.375 248.875 488.812 249.625C487.312 250.312 485.656 250.656 483.844 250.656ZM487.406 245.312C489.156 245.312 490.812 244.812 492.375 243.812C493.938 242.812 494.719 241.75 494.719 240.625V230.969C493.094 231.594 491.531 232.156 490.031 232.656C488.594 233.156 487.438 233.562 486.562 233.875C485.438 234.312 484.344 235.094 483.281 236.219C482.281 237.344 481.781 238.625 481.781 240.062C481.781 241.938 482.344 243.281 483.469 244.094C484.656 244.906 485.969 245.312 487.406 245.312ZM534.75 250.281C534.5 250.031 534.375 249.5 534.375 248.688C534.375 247.938 534.5 247.562 534.75 247.562C535.25 247.562 535.938 247.469 536.812 247.281C537.688 247.094 538.5 246.844 539.25 246.531C540 246.219 540.406 245.938 540.469 245.688C540.719 244.812 540.875 243.812 540.938 242.688C541.062 241.562 541.125 240.375 541.125 239.125V221.406C541.125 219.031 540.688 217.344 539.812 216.344C539.188 215.531 538.438 215.031 537.562 214.844C536.688 214.594 535.938 214.469 535.312 214.469C534.688 214.406 534.375 214.312 534.375 214.188C534.375 212.688 534.562 211.906 534.938 211.844C538.25 211.344 540.781 210.938 542.531 210.625C544.281 210.25 545.844 209.906 547.219 209.594L548.344 209.312C548.594 209.25 548.75 209.5 548.812 210.062C548.875 210.625 548.875 211.031 548.812 211.281C548.688 212.531 548.562 213.719 548.438 214.844C548.375 215.969 548.344 217.031 548.344 218.031V237.344C548.344 239.156 548.406 240.75 548.531 242.125C548.656 243.5 548.844 244.688 549.094 245.688C549.219 245.938 549.656 246.219 550.406 246.531C551.156 246.844 551.969 247.094 552.844 247.281C553.719 247.469 554.344 247.562 554.719 247.562C554.906 247.562 555.031 247.938 555.094 248.688C555.156 249.438 555.125 249.969 555 250.281L544.969 249.812L534.75 250.281ZM544.031 199.094C542.781 199.094 541.688 198.625 540.75 197.688C539.812 196.75 539.344 195.656 539.344 194.406C539.344 193.094 539.812 192 540.75 191.125C541.688 190.188 542.781 189.719 544.031 189.719C545.344 189.719 546.438 190.188 547.312 191.125C548.25 192 548.719 193.094 548.719 194.406C548.719 195.656 548.25 196.75 547.312 197.688C546.438 198.625 545.344 199.094 544.031 199.094ZM560.906 250.281C560.656 250.031 560.531 249.5 560.531 248.688C560.531 247.938 560.656 247.562 560.906 247.562C561.406 247.562 562.094 247.469 562.969 247.281C563.844 247.094 564.656 246.844 565.406 246.531C566.156 246.219 566.562 245.938 566.625 245.688C566.875 244.812 567.031 243.812 567.094 242.688C567.219 241.562 567.281 240.375 567.281 239.125V221.406C567.281 219.031 566.844 217.344 565.969 216.344C565.344 215.594 564.594 215.094 563.719 214.844C562.906 214.594 562.156 214.469 561.469 214.469C560.844 214.406 560.531 214.312 560.531 214.188C560.531 212.688 560.719 211.906 561.094 211.844C564.406 211.344 567.094 210.906 569.156 210.531C571.219 210.094 572.5 209.812 573 209.688L574.5 209.312C574.75 209.25 574.906 209.5 574.969 210.062C575.031 210.625 575.031 211.031 574.969 211.281C574.844 212.156 574.75 212.906 574.688 213.531C574.625 214.156 574.594 214.656 574.594 215.031C574.594 215.281 574.656 215.406 574.781 215.406C574.844 215.406 574.938 215.344 575.062 215.219C576.5 213.719 578.438 212.312 580.875 211C583.375 209.625 585.75 208.938 588 208.938C592.375 208.938 595.438 210.5 597.188 213.625C598.938 216.75 599.812 221.812 599.812 228.812V237.344C599.812 239.156 599.875 240.75 600 242.125C600.125 243.5 600.312 244.688 600.562 245.688C600.688 245.938 601.125 246.219 601.875 246.531C602.625 246.844 603.438 247.094 604.312 247.281C605.188 247.469 605.812 247.562 606.188 247.562C606.375 247.562 606.5 247.938 606.562 248.688C606.625 249.438 606.594 249.969 606.469 250.281L596.438 249.812L586.594 250.281C586.344 250.031 586.219 249.5 586.219 248.688C586.219 247.938 586.344 247.562 586.594 247.562C587.094 247.562 587.75 247.469 588.562 247.281C589.375 247.094 590.125 246.844 590.812 246.531C591.5 246.219 591.875 245.938 591.938 245.688C592.188 244.812 592.344 243.812 592.406 242.688C592.531 241.562 592.594 240.375 592.594 239.125V229.75C592.594 223.938 591.844 219.969 590.344 217.844C588.844 215.719 586.406 214.656 583.031 214.656C581.719 214.656 580.406 215.031 579.094 215.781C577.781 216.469 576.688 217.281 575.812 218.219C574.938 219.156 574.5 220.031 574.5 220.844V237.344C574.5 239.156 574.562 240.75 574.688 242.125C574.812 243.5 575 244.688 575.25 245.688C575.375 245.938 575.812 246.219 576.562 246.531C577.312 246.844 578.125 247.094 579 247.281C579.875 247.469 580.5 247.562 580.875 247.562C581.062 247.562 581.188 247.938 581.25 248.688C581.312 249.438 581.281 249.969 581.156 250.281L571.125 249.812L560.906 250.281ZM627.188 250.656C624.062 250.656 621.438 249.625 619.312 247.562C617.25 245.5 616.219 242.562 616.219 238.75V214.938H610.781C610.469 214.938 610.312 214.281 610.312 212.969C610.312 212.594 610.344 212.375 610.406 212.312C612.281 211.438 614.25 209.781 616.312 207.344C617.75 205.656 618.812 204.188 619.5 202.938C620.25 201.688 620.625 200.938 620.625 200.688C622.5 200.688 623.438 200.844 623.438 201.156V210.438L630.844 210.531H636.094C636.594 210.531 636.844 210.812 636.844 211.375C636.844 212.562 636.531 213.75 635.906 214.938H623.438V237.906C623.438 240.406 624.062 242.406 625.312 243.906C626.625 245.406 628.312 246.156 630.375 246.156C632.312 246.156 634.25 245.562 636.188 244.375C636.375 244.25 636.656 244.531 637.031 245.219C637.406 245.844 637.562 246.188 637.5 246.25C636.562 247.25 635.125 248.25 633.188 249.25C631.25 250.188 629.25 250.656 627.188 250.656ZM662.156 250.656C658.406 250.656 654.969 249.719 651.844 247.844C648.719 245.969 646.219 243.438 644.344 240.25C642.531 237.062 641.625 233.562 641.625 229.75C641.625 225.875 642.5 222.375 644.25 219.25C646.062 216.125 648.5 213.656 651.562 211.844C654.625 209.969 658.094 209.031 661.969 209.031C665.719 209.031 669.125 209.969 672.188 211.844C675.312 213.719 677.781 216.219 679.594 219.344C681.469 222.469 682.406 225.938 682.406 229.75C682.406 233.562 681.5 237.062 679.688 240.25C677.875 243.438 675.438 245.969 672.375 247.844C669.375 249.719 665.969 250.656 662.156 250.656ZM663 247C665.25 247 667.219 246.281 668.906 244.844C670.594 243.406 671.906 241.469 672.844 239.031C673.844 236.594 674.344 233.938 674.344 231.062C674.344 227.688 673.719 224.625 672.469 221.875C671.219 219.062 669.562 216.844 667.5 215.219C665.5 213.531 663.312 212.688 660.938 212.688C658.75 212.688 656.781 213.406 655.031 214.844C653.344 216.219 652.031 218.094 651.094 220.469C650.156 222.781 649.688 225.406 649.688 228.344C649.688 231.719 650.281 234.844 651.469 237.719C652.719 240.531 654.344 242.781 656.344 244.469C658.406 246.156 660.625 247 663 247ZM730.5 250.938C729 250.938 727.406 250.812 725.719 250.562C724.031 250.375 722.625 250.156 721.5 249.906C719.188 249.469 717.5 249.125 716.438 248.875C715.438 248.562 714.5 248.344 713.625 248.219C712.812 244.344 712.219 241.188 711.844 238.75C711.469 236.25 711.281 234.438 711.281 233.312C711.281 232.938 711.781 232.75 712.781 232.75C713.906 232.75 714.688 233.031 715.125 233.594C717.312 242.594 722.5 247.094 730.688 247.094C733.812 247.094 736.469 246.156 738.656 244.281C740.844 242.406 741.938 239.75 741.938 236.312C741.938 235.188 741.688 233.812 741.188 232.188C740.75 230.562 739.719 229.156 738.094 227.969C736.844 227.031 735.812 226.344 735 225.906C734.188 225.406 733.375 224.969 732.562 224.594C731.75 224.156 730.719 223.562 729.469 222.812L725.719 220.562C723.781 219.375 721.844 218.031 719.906 216.531C717.969 214.969 716.344 213.156 715.031 211.094C713.781 209.031 713.156 206.688 713.156 204.062C713.156 200.75 714 197.875 715.688 195.438C717.438 192.938 719.688 191 722.438 189.625C725.25 188.25 728.281 187.562 731.531 187.562C732.906 187.562 734.188 187.656 735.375 187.844C736.625 187.969 737.656 188.125 738.469 188.312C740.344 188.75 741.656 189.094 742.406 189.344C743.219 189.594 744.312 189.875 745.688 190.188C746.438 193.438 746.812 197.906 746.812 203.594C746.812 204.031 746.5 204.25 745.875 204.25C744.312 204.25 743.5 203.938 743.438 203.312C743.125 201.438 742.438 199.594 741.375 197.781C740.312 195.969 738.875 194.469 737.062 193.281C735.25 192.031 733.094 191.406 730.594 191.406C728.031 191.406 726.031 191.906 724.594 192.906C723.156 193.844 722.125 195.062 721.5 196.562C720.938 198 720.656 199.531 720.656 201.156C720.656 202.719 721.031 204.281 721.781 205.844C722.531 207.406 723.625 208.719 725.062 209.781C727 211.219 728.938 212.562 730.875 213.812C732.875 215.062 734.938 216.344 737.062 217.656C739.062 218.906 741.062 220.312 743.062 221.875C745.062 223.375 746.719 225.094 748.031 227.031C749.406 228.969 750.094 231.219 750.094 233.781C750.094 237.094 749.188 240.062 747.375 242.688C745.562 245.25 743.156 247.281 740.156 248.781C737.219 250.219 734 250.938 730.5 250.938ZM756.375 250.281C756.125 250.031 756 249.5 756 248.688C756 247.938 756.125 247.562 756.375 247.562C756.875 247.562 757.562 247.469 758.438 247.281C759.312 247.094 760.125 246.844 760.875 246.531C761.625 246.219 762.031 245.938 762.094 245.688C762.344 244.812 762.5 243.812 762.562 242.688C762.688 241.562 762.75 240.375 762.75 239.125V221.406C762.75 219.031 762.312 217.344 761.438 216.344C760.812 215.594 760.062 215.094 759.188 214.844C758.375 214.594 757.625 214.469 756.938 214.469C756.312 214.406 756 214.312 756 214.188C756 212.688 756.188 211.906 756.562 211.844C759.875 211.344 762.469 210.906 764.344 210.531C766.281 210.156 767.75 209.844 768.75 209.594L769.969 209.312C770.219 209.25 770.375 209.5 770.438 210.062C770.5 210.562 770.5 210.969 770.438 211.281C770.312 212.156 770.219 212.906 770.156 213.531C770.094 214.156 770.062 214.656 770.062 215.031C770.062 215.281 770.125 215.406 770.25 215.406C770.312 215.406 770.406 215.344 770.531 215.219C771.969 213.719 773.906 212.312 776.344 211C778.844 209.625 781.219 208.938 783.469 208.938C785.969 208.938 788.031 209.625 789.656 211C791.344 212.312 792.5 213.844 793.125 215.594C797.875 211.156 802.719 208.938 807.656 208.938C815.531 208.938 819.469 214.938 819.469 226.938V237.344C819.469 239.156 819.531 240.75 819.656 242.125C819.781 243.5 819.969 244.688 820.219 245.688C820.344 245.938 820.781 246.219 821.531 246.531C822.281 246.844 823.094 247.094 823.969 247.281C824.844 247.469 825.469 247.562 825.844 247.562C826.031 247.562 826.156 247.938 826.219 248.688C826.281 249.438 826.25 249.969 826.125 250.281L816.094 249.812L805.875 250.281C805.625 250.031 805.5 249.5 805.5 248.688C805.5 247.938 805.625 247.562 805.875 247.562C806.375 247.562 807.062 247.469 807.938 247.281C808.812 247.094 809.625 246.844 810.375 246.531C811.125 246.219 811.531 245.938 811.594 245.688C811.844 244.812 812 243.875 812.062 242.875C812.188 241.812 812.25 240.75 812.25 239.688V229.094C812.25 219.469 809.094 214.656 802.781 214.656C801.281 214.656 799.875 215 798.562 215.688C797.25 216.312 796.188 217.031 795.375 217.844C794.625 218.656 794.25 219.375 794.25 220C794.438 221.188 794.562 222.406 794.625 223.656C794.688 224.844 794.719 226.156 794.719 227.594V238.188C794.719 239.75 794.781 241.156 794.906 242.406C795.031 243.594 795.219 244.688 795.469 245.688C795.594 245.938 796.031 246.219 796.781 246.531C797.531 246.844 798.344 247.094 799.219 247.281C800.094 247.469 800.719 247.562 801.094 247.562C801.281 247.562 801.406 247.938 801.469 248.688C801.531 249.438 801.5 249.969 801.375 250.281L791.344 249.812L781.125 250.281C780.875 250.031 780.75 249.5 780.75 248.688C780.75 247.938 780.875 247.562 781.125 247.562C781.625 247.562 782.312 247.469 783.188 247.281C784.062 247.094 784.875 246.844 785.625 246.531C786.375 246.219 786.781 245.938 786.844 245.688C787.094 244.812 787.25 243.812 787.312 242.688C787.438 241.562 787.5 240.375 787.5 239.125V229.562C787.5 219.625 784.5 214.656 778.5 214.656C777.25 214.656 775.969 215 774.656 215.688C773.344 216.312 772.219 217.125 771.281 218.125C770.406 219.062 769.969 219.969 769.969 220.844V237.344C769.969 239.156 770.031 240.75 770.156 242.125C770.281 243.5 770.469 244.688 770.719 245.688C770.844 245.938 771.281 246.219 772.031 246.531C772.781 246.844 773.594 247.094 774.469 247.281C775.344 247.469 775.969 247.562 776.344 247.562C776.531 247.562 776.656 247.938 776.719 248.688C776.781 249.438 776.75 249.969 776.625 250.281L766.594 249.812L756.375 250.281ZM842.062 250.656C839.188 250.656 836.812 249.906 834.938 248.406C833.062 246.844 832.125 244.531 832.125 241.469C832.125 237.719 834.562 234.594 839.438 232.094C841.562 231.031 843.656 230.188 845.719 229.562C847.844 228.938 849.969 228.219 852.094 227.406C852.656 227.219 852.938 226.75 852.938 226V218.969C852.938 216.969 852.312 215.438 851.062 214.375C849.812 213.25 848.312 212.688 846.562 212.688C844.688 212.688 843.125 213.344 841.875 214.656C840.625 215.906 840 217.562 840 219.625C840 221.812 838.719 222.906 836.156 222.906C834.344 222.906 833.125 222.312 832.5 221.125C832.5 219.812 833.031 218.469 834.094 217.094C835.219 215.656 836.656 214.344 838.406 213.156C840.156 211.969 842.062 211 844.125 210.25C846.25 209.5 848.344 209.125 850.406 209.125C853.844 209.125 856.312 209.969 857.812 211.656C859.312 213.281 860.062 215.938 860.062 219.625V241.281C860.062 242.594 860.406 243.688 861.094 244.562C861.781 245.438 862.719 245.875 863.906 245.875C864.719 245.875 865.812 245.438 867.188 244.562C867.438 244.562 867.562 244.812 867.562 245.312C867.562 246.125 867.406 246.781 867.094 247.281C864.531 249.469 862.344 250.562 860.531 250.562C859.094 250.562 857.719 249.969 856.406 248.781C855.094 247.594 854.188 246.344 853.688 245.031C853.375 245.281 852.969 245.625 852.469 246.062C852.031 246.438 851.656 246.75 851.344 247C850.031 248 848.594 248.875 847.031 249.625C845.531 250.312 843.875 250.656 842.062 250.656ZM845.625 245.312C847.375 245.312 849.031 244.812 850.594 243.812C852.156 242.812 852.938 241.75 852.938 240.625V230.969C851.312 231.594 849.75 232.156 848.25 232.656C846.812 233.156 845.656 233.562 844.781 233.875C843.656 234.312 842.562 235.094 841.5 236.219C840.5 237.344 840 238.625 840 240.062C840 241.938 840.562 243.281 841.688 244.094C842.875 244.906 844.188 245.312 845.625 245.312ZM871.594 250.281C871.344 250.031 871.219 249.5 871.219 248.688C871.219 247.938 871.344 247.562 871.594 247.562C872.094 247.562 872.781 247.469 873.656 247.281C874.531 247.094 875.344 246.844 876.094 246.531C876.844 246.219 877.25 245.938 877.312 245.688C877.562 244.812 877.719 243.812 877.781 242.688C877.906 241.562 877.969 240.375 877.969 239.125V221.406C877.969 219.031 877.531 217.344 876.656 216.344C876.031 215.594 875.281 215.094 874.406 214.844C873.594 214.594 872.844 214.469 872.156 214.469C871.531 214.406 871.219 214.312 871.219 214.188C871.219 212.688 871.406 211.906 871.781 211.844C878.594 210.781 882.531 210.094 883.594 209.781L885.188 209.312C885.438 209.25 885.594 209.5 885.656 210.062C885.719 210.625 885.719 211.031 885.656 211.281L885.094 215.969C886.219 214.281 887.75 212.719 889.688 211.281C891.688 209.781 893.656 209.031 895.594 209.031C899.219 209.031 901.656 209.938 902.906 211.75C902.906 213.938 902.562 215.531 901.875 216.531C901.188 217.531 900.344 218.031 899.344 218.031C898.219 218.031 897.188 217.5 896.25 216.438C895.312 215.375 894.031 214.844 892.406 214.844C891.156 214.844 889.969 215.281 888.844 216.156C887.719 216.969 886.812 218.031 886.125 219.344C885.5 220.594 885.188 221.906 885.188 223.281V237.344C885.188 239.156 885.25 240.75 885.375 242.125C885.5 243.5 885.688 244.688 885.938 245.688C886.062 245.938 886.5 246.219 887.25 246.531C888 246.844 888.812 247.094 889.688 247.281C890.625 247.469 891.281 247.562 891.656 247.562C891.844 247.562 891.969 247.938 892.031 248.688C892.094 249.438 892.062 249.969 891.938 250.281L881.812 249.812L871.594 250.281ZM922.219 250.656C919.094 250.656 916.469 249.625 914.344 247.562C912.281 245.5 911.25 242.562 911.25 238.75V214.938H905.812C905.5 214.938 905.344 214.281 905.344 212.969C905.344 212.594 905.375 212.375 905.438 212.312C907.312 211.438 909.281 209.781 911.344 207.344C912.781 205.656 913.844 204.188 914.531 202.938C915.281 201.688 915.656 200.938 915.656 200.688C917.531 200.688 918.469 200.844 918.469 201.156V210.438L925.875 210.531H931.125C931.625 210.531 931.875 210.812 931.875 211.375C931.875 212.562 931.562 213.75 930.938 214.938H918.469V237.906C918.469 240.406 919.094 242.406 920.344 243.906C921.656 245.406 923.344 246.156 925.406 246.156C927.344 246.156 929.281 245.562 931.219 244.375C931.406 244.25 931.688 244.531 932.062 245.219C932.438 245.844 932.594 246.188 932.531 246.25C931.594 247.25 930.156 248.25 928.219 249.25C926.281 250.188 924.281 250.656 922.219 250.656ZM958.219 250.281C958.031 250.094 957.938 249.625 957.938 248.875C957.938 248 958.031 247.562 958.219 247.562C958.781 247.562 959.531 247.469 960.469 247.281C961.406 247.031 962.281 246.75 963.094 246.438C963.969 246.125 964.5 245.781 964.688 245.406C965.125 244.719 965.344 241.781 965.344 236.594V201.156C965.344 199.344 965.281 197.75 965.156 196.375C965.094 195 964.938 193.906 964.688 193.094C964.562 192.719 964.062 192.375 963.188 192.062C962.375 191.75 961.469 191.5 960.469 191.312C959.531 191.125 958.781 191.031 958.219 191.031C957.969 191.031 957.844 190.656 957.844 189.906C957.844 189.094 957.969 188.562 958.219 188.312C959.844 188.375 961.562 188.438 963.375 188.5C965.25 188.5 967.25 188.5 969.375 188.5L978.469 188.406C980.281 188.406 981.781 188.406 982.969 188.406C984.156 188.344 985.062 188.312 985.688 188.312C992.5 188.312 998.312 189.719 1003.12 192.531C1007.94 195.281 1011.62 198.938 1014.19 203.5C1016.75 208.062 1018.03 213.062 1018.03 218.5C1018.03 224.5 1016.72 229.938 1014.09 234.812C1011.53 239.688 1007.81 243.531 1002.94 246.344C998.125 249.156 992.344 250.469 985.594 250.281L978.938 250.094C977.062 250.031 975.344 250 973.781 250C972.219 249.938 970.812 249.938 969.562 250L958.219 250.281ZM987.094 245.969C1001.47 245.969 1008.66 236.688 1008.66 218.125C1008.66 213.375 1007.81 209.062 1006.12 205.188C1004.44 201.312 1001.94 198.219 998.625 195.906C995.375 193.594 991.312 192.438 986.438 192.438H985.969C979.219 192.438 975.469 192.938 974.719 193.938C973.906 195 973.5 196.969 973.5 199.844V236.969C973.5 239.531 973.969 241.906 974.906 244.094C975.031 244.406 975.562 244.688 976.5 244.938C977.438 245.125 978.562 245.312 979.875 245.5C981.25 245.625 982.594 245.75 983.906 245.875C985.219 245.938 986.281 245.969 987.094 245.969ZM1044.75 250.562C1041.31 250.562 1038.16 249.656 1035.28 247.844C1032.41 246.031 1030.09 243.625 1028.34 240.625C1026.66 237.562 1025.81 234.156 1025.81 230.406C1025.81 226.031 1026.62 222.25 1028.25 219.062C1029.88 215.875 1032.09 213.438 1034.91 211.75C1037.72 210 1040.88 209.125 1044.38 209.125C1047.25 209.125 1049.78 209.688 1051.97 210.812C1054.16 211.875 1055.84 213.25 1057.03 214.938C1058.16 216.688 1058.97 218.469 1059.47 220.281C1060.03 222.031 1060.31 223.781 1060.31 225.531C1060.31 226.781 1060.12 227.562 1059.75 227.875C1059.38 228.125 1058.66 228.25 1057.59 228.25H1033.97C1033.47 228.25 1033.22 228.406 1033.22 228.719C1033.22 231.344 1033.75 233.875 1034.81 236.312C1035.88 238.688 1037.44 240.656 1039.5 242.219C1041.56 243.781 1044.09 244.562 1047.09 244.562C1049.72 244.562 1051.91 244.188 1053.66 243.438C1055.47 242.625 1056.78 241.906 1057.59 241.281L1058.25 240.812C1058.62 240.812 1058.81 241.219 1058.81 242.031C1058.81 242.469 1058.62 243.031 1058.25 243.719C1057 245.469 1055.16 247.062 1052.72 248.5C1050.28 249.875 1047.62 250.562 1044.75 250.562ZM1033.97 224.312H1052.25C1052.56 224.312 1052.72 224 1052.72 223.375C1052.72 222 1052.34 220.5 1051.59 218.875C1050.91 217.188 1049.84 215.719 1048.41 214.469C1046.97 213.219 1045.16 212.594 1042.97 212.594C1040.97 212.594 1039.25 213.281 1037.81 214.656C1036.38 215.969 1035.28 217.5 1034.53 219.25C1033.78 220.938 1033.41 222.406 1033.41 223.656C1033.41 224.094 1033.59 224.312 1033.97 224.312ZM1085.06 250.562C1081.62 250.562 1078.47 249.656 1075.59 247.844C1072.72 246.031 1070.41 243.625 1068.66 240.625C1066.97 237.562 1066.12 234.156 1066.12 230.406C1066.12 226.531 1066.81 223 1068.19 219.812C1069.62 216.562 1071.69 213.969 1074.38 212.031C1077.12 210.094 1080.44 209.125 1084.31 209.125C1091.19 209.125 1095.94 210.719 1098.56 213.906C1098.56 218.094 1097.41 220.188 1095.09 220.188C1094.03 220.188 1093.22 219.969 1092.66 219.531C1092.09 219.031 1091.38 218.156 1090.5 216.906C1088.56 214.031 1086.25 212.594 1083.56 212.594C1081 212.594 1078.66 213.812 1076.53 216.25C1074.47 218.688 1073.44 222.312 1073.44 227.125C1073.44 232.125 1074.66 236.281 1077.09 239.594C1079.59 242.906 1083.03 244.562 1087.41 244.562C1090.03 244.562 1092.22 244.188 1093.97 243.438C1095.78 242.625 1097.09 241.906 1097.91 241.281L1098.56 240.812C1098.94 240.812 1099.12 241.219 1099.12 242.031C1099.12 242.469 1098.94 243.031 1098.56 243.719C1097.31 245.469 1095.47 247.062 1093.03 248.5C1090.59 249.875 1087.94 250.562 1085.06 250.562ZM1104 250.281C1103.75 250.031 1103.62 249.5 1103.62 248.688C1103.62 247.938 1103.75 247.562 1104 247.562C1104.5 247.562 1105.19 247.469 1106.06 247.281C1106.94 247.094 1107.75 246.844 1108.5 246.531C1109.25 246.219 1109.66 245.938 1109.72 245.688C1109.97 244.812 1110.12 243.812 1110.19 242.688C1110.31 241.562 1110.38 240.375 1110.38 239.125V221.406C1110.38 219.031 1109.94 217.344 1109.06 216.344C1108.44 215.531 1107.69 215.031 1106.81 214.844C1105.94 214.594 1105.19 214.469 1104.56 214.469C1103.94 214.406 1103.62 214.312 1103.62 214.188C1103.62 212.688 1103.81 211.906 1104.19 211.844C1107.5 211.344 1110.03 210.938 1111.78 210.625C1113.53 210.25 1115.09 209.906 1116.47 209.594L1117.59 209.312C1117.84 209.25 1118 209.5 1118.06 210.062C1118.12 210.625 1118.12 211.031 1118.06 211.281C1117.94 212.531 1117.81 213.719 1117.69 214.844C1117.62 215.969 1117.59 217.031 1117.59 218.031V237.344C1117.59 239.156 1117.66 240.75 1117.78 242.125C1117.91 243.5 1118.09 244.688 1118.34 245.688C1118.47 245.938 1118.91 246.219 1119.66 246.531C1120.41 246.844 1121.22 247.094 1122.09 247.281C1122.97 247.469 1123.59 247.562 1123.97 247.562C1124.16 247.562 1124.28 247.938 1124.34 248.688C1124.41 249.438 1124.38 249.969 1124.25 250.281L1114.22 249.812L1104 250.281ZM1113.28 199.094C1112.03 199.094 1110.94 198.625 1110 197.688C1109.06 196.75 1108.59 195.656 1108.59 194.406C1108.59 193.094 1109.06 192 1110 191.125C1110.94 190.188 1112.03 189.719 1113.28 189.719C1114.59 189.719 1115.69 190.188 1116.56 191.125C1117.5 192 1117.97 193.094 1117.97 194.406C1117.97 195.656 1117.5 196.75 1116.56 197.688C1115.69 198.625 1114.59 199.094 1113.28 199.094ZM1143.47 251.031C1141.53 251.031 1139.78 250.812 1138.22 250.375C1136.66 249.938 1134.75 249.562 1132.5 249.25C1132.25 248.562 1132 247.625 1131.75 246.438C1131.5 245.25 1131.28 244 1131.09 242.688C1130.97 241.375 1130.91 240.312 1130.91 239.5C1131.41 239.125 1131.78 238.938 1132.03 238.938C1132.97 238.938 1133.47 239.125 1133.53 239.5C1133.78 240.75 1134.41 242 1135.41 243.25C1136.41 244.5 1137.62 245.562 1139.06 246.438C1140.5 247.25 1141.97 247.656 1143.47 247.656C1145.47 247.656 1147.09 247.125 1148.34 246.062C1149.66 244.938 1150.31 243.344 1150.31 241.281C1150.31 239.094 1149.47 237.281 1147.78 235.844C1146.47 234.781 1145.34 234.031 1144.41 233.594C1143.53 233.094 1142.66 232.656 1141.78 232.281C1140.97 231.844 1139.94 231.25 1138.69 230.5C1133.81 227.688 1131.38 224.344 1131.38 220.469C1131.38 218.219 1132 216.25 1133.25 214.562C1134.5 212.812 1136.16 211.469 1138.22 210.531C1140.34 209.531 1142.59 209.031 1144.97 209.031C1145.66 209.031 1146.44 209.094 1147.31 209.219C1148.19 209.281 1149.16 209.375 1150.22 209.5C1151.28 209.688 1152.16 209.844 1152.84 209.969C1153.53 210.094 1154.09 210.188 1154.53 210.25C1155.22 213.125 1155.59 216.312 1155.66 219.812C1155.66 220.125 1155.25 220.281 1154.44 220.281C1153.56 220.281 1153.09 220.062 1153.03 219.625C1152.72 217.875 1151.81 216.219 1150.31 214.656C1148.88 213.094 1147.22 212.312 1145.34 212.312C1140.84 212.312 1138.59 214.156 1138.59 217.844C1138.59 218.781 1138.69 219.625 1138.88 220.375C1139.12 221.062 1139.66 221.719 1140.47 222.344C1142.41 223.844 1144.69 225.344 1147.31 226.844C1150 228.344 1152.22 229.75 1153.97 231.062C1156.59 233.062 1157.91 235.406 1157.91 238.094C1157.91 240.531 1157.25 242.75 1155.94 244.75C1154.62 246.688 1152.88 248.219 1150.69 249.344C1148.5 250.469 1146.09 251.031 1143.47 251.031ZM1164.09 250.281C1163.84 250.031 1163.72 249.5 1163.72 248.688C1163.72 247.938 1163.84 247.562 1164.09 247.562C1164.59 247.562 1165.28 247.469 1166.16 247.281C1167.03 247.094 1167.84 246.844 1168.59 246.531C1169.34 246.219 1169.75 245.938 1169.81 245.688C1170.06 244.812 1170.22 243.812 1170.28 242.688C1170.41 241.562 1170.47 240.375 1170.47 239.125V221.406C1170.47 219.031 1170.03 217.344 1169.16 216.344C1168.53 215.531 1167.78 215.031 1166.91 214.844C1166.03 214.594 1165.28 214.469 1164.66 214.469C1164.03 214.406 1163.72 214.312 1163.72 214.188C1163.72 212.688 1163.91 211.906 1164.28 211.844C1167.59 211.344 1170.12 210.938 1171.88 210.625C1173.62 210.25 1175.19 209.906 1176.56 209.594L1177.69 209.312C1177.94 209.25 1178.09 209.5 1178.16 210.062C1178.22 210.625 1178.22 211.031 1178.16 211.281C1178.03 212.531 1177.91 213.719 1177.78 214.844C1177.72 215.969 1177.69 217.031 1177.69 218.031V237.344C1177.69 239.156 1177.75 240.75 1177.88 242.125C1178 243.5 1178.19 244.688 1178.44 245.688C1178.56 245.938 1179 246.219 1179.75 246.531C1180.5 246.844 1181.31 247.094 1182.19 247.281C1183.06 247.469 1183.69 247.562 1184.06 247.562C1184.25 247.562 1184.38 247.938 1184.44 248.688C1184.5 249.438 1184.47 249.969 1184.34 250.281L1174.31 249.812L1164.09 250.281ZM1173.38 199.094C1172.12 199.094 1171.03 198.625 1170.09 197.688C1169.16 196.75 1168.69 195.656 1168.69 194.406C1168.69 193.094 1169.16 192 1170.09 191.125C1171.03 190.188 1172.12 189.719 1173.38 189.719C1174.69 189.719 1175.78 190.188 1176.66 191.125C1177.59 192 1178.06 193.094 1178.06 194.406C1178.06 195.656 1177.59 196.75 1176.66 197.688C1175.78 198.625 1174.69 199.094 1173.38 199.094ZM1211.16 250.656C1207.41 250.656 1203.97 249.719 1200.84 247.844C1197.72 245.969 1195.22 243.438 1193.34 240.25C1191.53 237.062 1190.62 233.562 1190.62 229.75C1190.62 225.875 1191.5 222.375 1193.25 219.25C1195.06 216.125 1197.5 213.656 1200.56 211.844C1203.62 209.969 1207.09 209.031 1210.97 209.031C1214.72 209.031 1218.12 209.969 1221.19 211.844C1224.31 213.719 1226.78 216.219 1228.59 219.344C1230.47 222.469 1231.41 225.938 1231.41 229.75C1231.41 233.562 1230.5 237.062 1228.69 240.25C1226.88 243.438 1224.44 245.969 1221.38 247.844C1218.38 249.719 1214.97 250.656 1211.16 250.656ZM1212 247C1214.25 247 1216.22 246.281 1217.91 244.844C1219.59 243.406 1220.91 241.469 1221.84 239.031C1222.84 236.594 1223.34 233.938 1223.34 231.062C1223.34 227.688 1222.72 224.625 1221.47 221.875C1220.22 219.062 1218.56 216.844 1216.5 215.219C1214.5 213.531 1212.31 212.688 1209.94 212.688C1207.75 212.688 1205.78 213.406 1204.03 214.844C1202.34 216.219 1201.03 218.094 1200.09 220.469C1199.16 222.781 1198.69 225.406 1198.69 228.344C1198.69 231.719 1199.28 234.844 1200.47 237.719C1201.72 240.531 1203.34 242.781 1205.34 244.469C1207.41 246.156 1209.62 247 1212 247ZM1238.06 250.281C1237.81 250.031 1237.69 249.5 1237.69 248.688C1237.69 247.938 1237.81 247.562 1238.06 247.562C1238.56 247.562 1239.25 247.469 1240.12 247.281C1241 247.094 1241.81 246.844 1242.56 246.531C1243.31 246.219 1243.72 245.938 1243.78 245.688C1244.03 244.812 1244.19 243.812 1244.25 242.688C1244.38 241.562 1244.44 240.375 1244.44 239.125V221.406C1244.44 219.031 1244 217.344 1243.12 216.344C1242.5 215.594 1241.75 215.094 1240.88 214.844C1240.06 214.594 1239.31 214.469 1238.62 214.469C1238 214.406 1237.69 214.312 1237.69 214.188C1237.69 212.688 1237.88 211.906 1238.25 211.844C1241.56 211.344 1244.25 210.906 1246.31 210.531C1248.38 210.094 1249.66 209.812 1250.16 209.688L1251.66 209.312C1251.91 209.25 1252.06 209.5 1252.12 210.062C1252.19 210.625 1252.19 211.031 1252.12 211.281C1252 212.156 1251.91 212.906 1251.84 213.531C1251.78 214.156 1251.75 214.656 1251.75 215.031C1251.75 215.281 1251.81 215.406 1251.94 215.406C1252 215.406 1252.09 215.344 1252.22 215.219C1253.66 213.719 1255.59 212.312 1258.03 211C1260.53 209.625 1262.91 208.938 1265.16 208.938C1269.53 208.938 1272.59 210.5 1274.34 213.625C1276.09 216.75 1276.97 221.812 1276.97 228.812V237.344C1276.97 239.156 1277.03 240.75 1277.16 242.125C1277.28 243.5 1277.47 244.688 1277.72 245.688C1277.84 245.938 1278.28 246.219 1279.03 246.531C1279.78 246.844 1280.59 247.094 1281.47 247.281C1282.34 247.469 1282.97 247.562 1283.34 247.562C1283.53 247.562 1283.66 247.938 1283.72 248.688C1283.78 249.438 1283.75 249.969 1283.62 250.281L1273.59 249.812L1263.75 250.281C1263.5 250.031 1263.38 249.5 1263.38 248.688C1263.38 247.938 1263.5 247.562 1263.75 247.562C1264.25 247.562 1264.91 247.469 1265.72 247.281C1266.53 247.094 1267.28 246.844 1267.97 246.531C1268.66 246.219 1269.03 245.938 1269.09 245.688C1269.34 244.812 1269.5 243.812 1269.56 242.688C1269.69 241.562 1269.75 240.375 1269.75 239.125V229.75C1269.75 223.938 1269 219.969 1267.5 217.844C1266 215.719 1263.56 214.656 1260.19 214.656C1258.88 214.656 1257.56 215.031 1256.25 215.781C1254.94 216.469 1253.84 217.281 1252.97 218.219C1252.09 219.156 1251.66 220.031 1251.66 220.844V237.344C1251.66 239.156 1251.72 240.75 1251.84 242.125C1251.97 243.5 1252.16 244.688 1252.41 245.688C1252.53 245.938 1252.97 246.219 1253.72 246.531C1254.47 246.844 1255.28 247.094 1256.16 247.281C1257.03 247.469 1257.66 247.562 1258.03 247.562C1258.22 247.562 1258.34 247.938 1258.41 248.688C1258.47 249.438 1258.44 249.969 1258.31 250.281L1248.28 249.812L1238.06 250.281ZM1302.28 251.031C1300.34 251.031 1298.59 250.812 1297.03 250.375C1295.47 249.938 1293.56 249.562 1291.31 249.25C1291.06 248.562 1290.81 247.625 1290.56 246.438C1290.31 245.25 1290.09 244 1289.91 242.688C1289.78 241.375 1289.72 240.312 1289.72 239.5C1290.22 239.125 1290.59 238.938 1290.84 238.938C1291.78 238.938 1292.28 239.125 1292.34 239.5C1292.59 240.75 1293.22 242 1294.22 243.25C1295.22 244.5 1296.44 245.562 1297.88 246.438C1299.31 247.25 1300.78 247.656 1302.28 247.656C1304.28 247.656 1305.91 247.125 1307.16 246.062C1308.47 244.938 1309.12 243.344 1309.12 241.281C1309.12 239.094 1308.28 237.281 1306.59 235.844C1305.28 234.781 1304.16 234.031 1303.22 233.594C1302.34 233.094 1301.47 232.656 1300.59 232.281C1299.78 231.844 1298.75 231.25 1297.5 230.5C1292.62 227.688 1290.19 224.344 1290.19 220.469C1290.19 218.219 1290.81 216.25 1292.06 214.562C1293.31 212.812 1294.97 211.469 1297.03 210.531C1299.16 209.531 1301.41 209.031 1303.78 209.031C1304.47 209.031 1305.25 209.094 1306.12 209.219C1307 209.281 1307.97 209.375 1309.03 209.5C1310.09 209.688 1310.97 209.844 1311.66 209.969C1312.34 210.094 1312.91 210.188 1313.34 210.25C1314.03 213.125 1314.41 216.312 1314.47 219.812C1314.47 220.125 1314.06 220.281 1313.25 220.281C1312.38 220.281 1311.91 220.062 1311.84 219.625C1311.53 217.875 1310.62 216.219 1309.12 214.656C1307.69 213.094 1306.03 212.312 1304.16 212.312C1299.66 212.312 1297.41 214.156 1297.41 217.844C1297.41 218.781 1297.5 219.625 1297.69 220.375C1297.94 221.062 1298.47 221.719 1299.28 222.344C1301.22 223.844 1303.5 225.344 1306.12 226.844C1308.81 228.344 1311.03 229.75 1312.78 231.062C1315.41 233.062 1316.72 235.406 1316.72 238.094C1316.72 240.531 1316.06 242.75 1314.75 244.75C1313.44 246.688 1311.69 248.219 1309.5 249.344C1307.31 250.469 1304.91 251.031 1302.28 251.031Z" fill="black"/>
<defs>
<filter id="filter0_d_119_2" x="4.30524" y="0" width="147.392" height="138" filterUnits="userSpaceOnUse" color-interpolation-filters="sRGB">
<feFlood flood-opacity="0" result="BackgroundImageFix"/>
<feColorMatrix in="SourceAlpha" type="matrix" values="0 0 0 0 0 0 0 0 0 0 0 0 0 0 0 0 0 0 127 0" result="hardAlpha"/>
<feOffset dy="4"/>
<feGaussianBlur stdDeviation="2"/>
<feComposite in2="hardAlpha" operator="out"/>
<feColorMatrix type="matrix" values="0 0 0 0 0 0 0 0 0 0 0 0 0 0 0 0 0 0 0.25 0"/>
<feBlend mode="normal" in2="BackgroundImageFix" result="effect1_dropShadow_119_2"/>
<feBlend mode="normal" in="SourceGraphic" in2="effect1_dropShadow_119_2" result="shape"/>
</filter>
<linearGradient id="paint0_linear_119_2" x1="15.4432" y1="-19.9286" x2="178.984" y2="192.479" gradientUnits="userSpaceOnUse">
<stop stop-color="white" stop-opacity="0.95"/>
<stop offset="0.388387" stop-color="#5D34FF" stop-opacity="0.975"/>
<stop offset="0.632949" stop-color="#20009E" stop-opacity="0.975765"/>
<stop offset="0.882418" stop-color="#16006E" stop-opacity="0.977015"/>
<stop offset="0.943715" stop-color="#0E0045"/>
</linearGradient>
</defs>
</svg>
