<svg width="391" height="369" viewBox="0 0 391 369" fill="none" xmlns="http://www.w3.org/2000/svg">
<g filter="url(#filter0_d_102_5)">
<mask id="path-1-outside-1_102_5" maskUnits="userSpaceOnUse" x="4" y="0" width="383" height="361" fill="black">
<rect fill="white" x="4" width="383" height="361"/>
<path d="M105.664 179.264L16.576 1.59998H195.776L267.456 143.936L345.28 1.59998H385.216L285.888 181.824L374.976 360H195.776L124.608 217.152L45.76 360H6.336L105.664 179.264Z"/>
</mask>
<path d="M105.664 179.264L16.576 1.59998H195.776L267.456 143.936L345.28 1.59998H385.216L285.888 181.824L374.976 360H195.776L124.608 217.152L45.76 360H6.336L105.664 179.264Z" fill="url(#paint0_linear_102_5)" shape-rendering="crispEdges"/>
<path d="M105.664 179.264L106.54 179.746L106.793 179.285L106.558 178.816L105.664 179.264ZM16.576 1.59998V0.599976H14.9559L15.6821 2.04822L16.576 1.59998ZM195.776 1.59998L196.669 1.15019L196.392 0.599976H195.776V1.59998ZM267.456 143.936L266.563 144.386L267.42 146.087L268.333 144.416L267.456 143.936ZM345.28 1.59998V0.599976H344.687L344.403 1.12024L345.28 1.59998ZM385.216 1.59998L386.092 2.08266L386.909 0.599976H385.216V1.59998ZM285.888 181.824L285.012 181.341L284.759 181.801L284.994 182.271L285.888 181.824ZM374.976 360V361H376.594L375.87 359.553L374.976 360ZM195.776 360L194.881 360.446L195.157 361H195.776V360ZM124.608 217.152L125.503 216.706L124.653 215L123.733 216.669L124.608 217.152ZM45.76 360V361H46.3503L46.6355 360.483L45.76 360ZM6.336 360L5.45963 359.518L4.64536 361H6.336V360ZM105.664 179.264L106.558 178.816L17.4699 1.15173L16.576 1.59998L15.6821 2.04822L104.77 179.712L105.664 179.264ZM16.576 1.59998V2.59998H195.776V1.59998V0.599976H16.576V1.59998ZM195.776 1.59998L194.883 2.04976L266.563 144.386L267.456 143.936L268.349 143.486L196.669 1.15019L195.776 1.59998ZM267.456 143.936L268.333 144.416L346.157 2.07971L345.28 1.59998L344.403 1.12024L266.579 143.456L267.456 143.936ZM345.28 1.59998V2.59998H385.216V1.59998V0.599976H345.28V1.59998ZM385.216 1.59998L384.34 1.11729L285.012 181.341L285.888 181.824L286.764 182.307L386.092 2.08266L385.216 1.59998ZM285.888 181.824L284.994 182.271L374.082 360.447L374.976 360L375.87 359.553L286.782 181.377L285.888 181.824ZM374.976 360V359H195.776V360V361H374.976V360ZM195.776 360L196.671 359.554L125.503 216.706L124.608 217.152L123.713 217.598L194.881 360.446L195.776 360ZM124.608 217.152L123.733 216.669L44.8845 359.517L45.76 360L46.6355 360.483L125.483 217.635L124.608 217.152ZM45.76 360V359H6.336V360V361H45.76V360ZM6.336 360L7.21237 360.482L106.54 179.746L105.664 179.264L104.788 178.782L5.45963 359.518L6.336 360Z" fill="black" mask="url(#path-1-outside-1_102_5)"/>
</g>
<defs>
<filter id="filter0_d_102_5" x="0.645386" y="0.599976" width="390.264" height="368.4" filterUnits="userSpaceOnUse" color-interpolation-filters="sRGB">
<feFlood flood-opacity="0" result="BackgroundImageFix"/>
<feColorMatrix in="SourceAlpha" type="matrix" values="0 0 0 0 0 0 0 0 0 0 0 0 0 0 0 0 0 0 127 0" result="hardAlpha"/>
<feOffset dy="4"/>
<feGaussianBlur stdDeviation="2"/>
<feComposite in2="hardAlpha" operator="out"/>
<feColorMatrix type="matrix" values="0 0 0 0 0 0 0 0 0 0 0 0 0 0 0 0 0 0 0.25 0"/>
<feBlend mode="normal" in2="BackgroundImageFix" result="effect1_dropShadow_102_5"/>
<feBlend mode="normal" in="SourceGraphic" in2="effect1_dropShadow_102_5" result="shape"/>
</filter>
<linearGradient id="paint0_linear_102_5" x1="21.5" y1="-57" x2="480" y2="535.5" gradientUnits="userSpaceOnUse">
<stop stop-color="white" stop-opacity="0.95"/>
<stop offset="0.388387" stop-color="#5D34FF" stop-opacity="0.975"/>
<stop offset="0.632949" stop-color="#20009E" stop-opacity="0.975765"/>
<stop offset="0.882418" stop-color="#16006E" stop-opacity="0.977015"/>
<stop offset="0.943715" stop-color="#0E0045"/>
</linearGradient>
</defs>
</svg>
