<svg width="108" height="108" viewBox="0 0 108 108" fill="none" xmlns="http://www.w3.org/2000/svg">
<path d="M58.5 85.5V67.5H72L54 45L36 67.5H49.5V85.5H58.5Z" fill="white"/>
<path d="M31.5 85.5H40.5V76.5H31.5C24.057 76.5 18 70.443 18 63C18 56.682 23.3955 50.598 30.0285 49.4325L32.643 48.9735L33.507 46.4625C36.6705 37.233 44.5275 31.5 54 31.5C66.4065 31.5 76.5 41.5935 76.5 54V58.5H81C85.9635 58.5 90 62.5365 90 67.5C90 72.4635 85.9635 76.5 81 76.5H67.5V85.5H81C90.927 85.5 99 77.427 99 67.5C98.9931 63.4662 97.6348 59.5511 95.1421 56.3797C92.6494 53.2084 89.1659 50.9636 85.248 50.004C83.2815 34.515 70.02 22.5 54 22.5C41.598 22.5 30.825 29.7495 25.9065 41.175C16.2405 44.064 9 53.19 9 63C9 75.4065 19.0935 85.5 31.5 85.5Z" fill="white"/>
</svg>
