<svg width="93" height="93" viewBox="0 0 93 93" fill="none" xmlns="http://www.w3.org/2000/svg">
<path d="M79.05 11.625C79.05 11.0084 78.8051 10.417 78.369 9.98096C77.933 9.54494 77.3416 9.29999 76.725 9.29999C76.1084 9.29999 75.517 9.54494 75.081 9.98096C74.645 10.417 74.4 11.0084 74.4 11.625V13.95H72.075C71.4584 13.95 70.867 14.1949 70.431 14.631C69.995 15.067 69.75 15.6584 69.75 16.275C69.75 16.8916 69.995 17.483 70.431 17.919C70.867 18.355 71.4584 18.6 72.075 18.6H74.4V20.925C74.4 21.5416 74.645 22.133 75.081 22.569C75.517 23.005 76.1084 23.25 76.725 23.25C77.3416 23.25 77.933 23.005 78.369 22.569C78.8051 22.133 79.05 21.5416 79.05 20.925V18.6H81.375C81.9916 18.6 82.583 18.355 83.019 17.919C83.4551 17.483 83.7 16.8916 83.7 16.275C83.7 15.6584 83.4551 15.067 83.019 14.631C82.583 14.1949 81.9916 13.95 81.375 13.95H79.05V11.625ZM32.55 25.575C32.55 26.1916 32.3051 26.783 31.869 27.219C31.433 27.655 30.8416 27.9 30.225 27.9H27.9V30.225C27.9 30.8416 27.6551 31.433 27.219 31.869C26.783 32.305 26.1916 32.55 25.575 32.55C24.9584 32.55 24.367 32.305 23.931 31.869C23.495 31.433 23.25 30.8416 23.25 30.225V27.9H20.925C20.3084 27.9 19.717 27.655 19.281 27.219C18.845 26.783 18.6 26.1916 18.6 25.575C18.6 24.9584 18.845 24.367 19.281 23.931C19.717 23.4949 20.3084 23.25 20.925 23.25H23.25V20.925C23.25 20.3084 23.495 19.717 23.931 19.281C24.367 18.8449 24.9584 18.6 25.575 18.6C26.1916 18.6 26.783 18.8449 27.219 19.281C27.6551 19.717 27.9 20.3084 27.9 20.925V23.25H30.225C30.8416 23.25 31.433 23.4949 31.869 23.931C32.3051 24.367 32.55 24.9584 32.55 25.575ZM74.4 67.425C74.4 68.0416 74.1551 68.633 73.719 69.069C73.283 69.505 72.6916 69.75 72.075 69.75H69.75V72.075C69.75 72.6916 69.5051 73.283 69.069 73.719C68.633 74.155 68.0416 74.4 67.425 74.4C66.8084 74.4 66.217 74.155 65.781 73.719C65.345 73.283 65.1 72.6916 65.1 72.075V69.75H62.775C62.1584 69.75 61.567 69.505 61.131 69.069C60.695 68.633 60.45 68.0416 60.45 67.425C60.45 66.8084 60.695 66.217 61.131 65.781C61.567 65.3449 62.1584 65.1 62.775 65.1H65.1V62.775C65.1 62.1584 65.345 61.567 65.781 61.131C66.217 60.6949 66.8084 60.45 67.425 60.45C68.0416 60.45 68.633 60.6949 69.069 61.131C69.5051 61.567 69.75 62.1584 69.75 62.775V65.1H72.075C72.6916 65.1 73.283 65.3449 73.719 65.781C74.1551 66.217 74.4 66.8084 74.4 67.425ZM62.4728 30.5319C61.6462 29.7046 60.6647 29.0483 59.5844 28.6006C58.5041 28.1528 57.3461 27.9223 56.1767 27.9223C55.0072 27.9223 53.8493 28.1528 52.7689 28.6006C51.6886 29.0483 50.7071 29.7046 49.8806 30.5319L47.6625 32.7499L60.2501 45.3375L62.4728 43.1194C63.2994 42.293 63.955 41.3118 64.4024 40.2319C64.8498 39.152 65.08 37.9945 65.08 36.8257C65.08 35.6568 64.8498 34.4993 64.4024 33.4194C63.955 32.3396 63.2994 31.3584 62.4728 30.5319ZM56.9625 48.625L44.375 36.0375L11.9087 68.5038C11.0822 69.3303 10.4265 70.3115 9.97922 71.3914C9.53192 72.4713 9.3017 73.6287 9.3017 74.7976C9.3017 75.9664 9.53192 77.1238 9.97922 78.2037C10.4265 79.2836 11.0822 80.2648 11.9087 81.0913C12.7352 81.9178 13.7164 82.5735 14.7963 83.0208C15.8762 83.4681 17.0336 83.6983 18.2024 83.6983C19.3713 83.6983 20.5287 83.4681 21.6086 83.0208C22.6885 82.5735 23.6697 81.9178 24.4962 81.0913L56.9625 48.625Z" fill="white"/>
</svg>
