<svg width="100" height="100" viewBox="0 0 100 100" fill="none" xmlns="http://www.w3.org/2000/svg">
<path d="M31.25 57.8125V73.4375C31.25 77.75 34.75 81.25 39.0625 81.25H60.9375C65.25 81.25 68.75 77.75 68.75 73.4375V57.8125C68.75 53.5 65.25 50 60.9375 50H39.0625C34.75 50 31.25 53.5 31.25 57.8125ZM37.5 57.8125C37.5 57.3981 37.6646 57.0007 37.9576 56.7076C38.2507 56.4146 38.6481 56.25 39.0625 56.25H43.75V62.5H37.5V57.8125ZM62.5 62.5H50V56.25H60.9375C61.3519 56.25 61.7493 56.4146 62.0424 56.7076C62.3354 57.0007 62.5 57.3981 62.5 57.8125V62.5ZM50 68.75H62.5V73.4375C62.5 73.8519 62.3354 74.2493 62.0424 74.5424C61.7493 74.8354 61.3519 75 60.9375 75H50V68.75ZM43.75 68.75V75H39.0625C38.6481 75 38.2507 74.8354 37.9576 74.5424C37.6646 74.2493 37.5 73.8519 37.5 73.4375V68.75H43.75ZM18.75 18.75C18.75 15.4348 20.067 12.2554 22.4112 9.91117C24.7554 7.56696 27.9348 6.25 31.25 6.25H53.6625C56.1481 6.25219 58.531 7.24134 60.2875 9L78.5062 27.2125C80.2626 28.97 81.2495 31.3528 81.25 33.8375V81.25C81.25 84.5652 79.933 87.7446 77.5888 90.0888C75.2446 92.433 72.0652 93.75 68.75 93.75H31.25C27.9348 93.75 24.7554 92.433 22.4112 90.0888C20.067 87.7446 18.75 84.5652 18.75 81.25V18.75ZM31.25 12.5C29.5924 12.5 28.0027 13.1585 26.8306 14.3306C25.6585 15.5027 25 17.0924 25 18.75V81.25C25 82.9076 25.6585 84.4973 26.8306 85.6694C28.0027 86.8415 29.5924 87.5 31.25 87.5H68.75C70.4076 87.5 71.9973 86.8415 73.1694 85.6694C74.3415 84.4973 75 82.9076 75 81.25V37.5H59.375C56.8886 37.5 54.504 36.5123 52.7459 34.7541C50.9877 32.996 50 30.6114 50 28.125V12.5H31.25ZM59.375 31.25H73.7063L56.25 13.7938V28.125C56.25 28.9538 56.5792 29.7487 57.1653 30.3347C57.7513 30.9208 58.5462 31.25 59.375 31.25Z" fill="white"/>
</svg>
