<svg width="98" height="98" viewBox="0 0 98 98" fill="none" xmlns="http://www.w3.org/2000/svg">
<path d="M28.5833 65.3334C30.2078 65.3333 31.7657 64.688 32.9144 63.5394C34.063 62.3907 34.7083 60.8328 34.7083 59.2084C34.7237 59.0045 34.7237 58.7997 34.7083 58.5959L46.1008 47.2034H47.9792L54.5533 53.7775V54.1042C54.5533 55.7286 55.1986 57.2866 56.3473 58.4352C57.496 59.5839 59.0539 60.2292 60.6783 60.2292C62.3028 60.2292 63.8607 59.5839 65.0094 58.4352C66.158 57.2866 66.8033 55.7286 66.8033 54.1042V53.7775L81.6667 38.7917C82.8781 38.7917 84.0623 38.4325 85.0695 37.7594C86.0768 37.0864 86.8618 36.1298 87.3254 35.0106C87.789 33.8914 87.9103 32.6599 87.674 31.4718C87.4376 30.2836 86.8543 29.1923 85.9977 28.3357C85.1411 27.4791 84.0497 26.8957 82.8616 26.6594C81.6735 26.423 80.4419 26.5443 79.3227 27.0079C78.2035 27.4715 77.2469 28.2566 76.5739 29.2638C75.9009 30.2711 75.5417 31.4553 75.5417 32.6667C75.5263 32.8706 75.5263 33.0753 75.5417 33.2792L60.8008 48.02H60.1475L53.0833 40.8334C53.0833 39.2089 52.438 37.651 51.2894 36.5023C50.1407 35.3537 48.5828 34.7084 46.9583 34.7084C45.3339 34.7084 43.776 35.3537 42.6273 36.5023C41.4786 37.651 40.8333 39.2089 40.8333 40.8334L28.5833 53.0834C26.9589 53.0834 25.401 53.7287 24.2523 54.8773C23.1036 56.026 22.4583 57.5839 22.4583 59.2084C22.4583 60.8328 23.1036 62.3907 24.2523 63.5394C25.401 64.688 26.9589 65.3334 28.5833 65.3334ZM83.7083 81.6667H14.2917V12.25C14.2917 11.1671 13.8615 10.1284 13.0957 9.36267C12.3299 8.59689 11.2913 8.16669 10.2083 8.16669C9.12537 8.16669 8.08675 8.59689 7.32098 9.36267C6.55521 10.1284 6.125 11.1671 6.125 12.25V85.75C6.125 86.833 6.55521 87.8716 7.32098 88.6374C8.08675 89.4031 9.12537 89.8333 10.2083 89.8333H83.7083C84.7913 89.8333 85.8299 89.4031 86.5957 88.6374C87.3615 87.8716 87.7917 86.833 87.7917 85.75C87.7917 84.667 87.3615 83.6284 86.5957 82.8627C85.8299 82.0969 84.7913 81.6667 83.7083 81.6667Z" fill="white"/>
</svg>
