<svg width="85" height="89" viewBox="0 0 85 89" fill="none" xmlns="http://www.w3.org/2000/svg">
<path fill-rule="evenodd" clip-rule="evenodd" d="M37.7152 8.89881H47.268C47.5845 8.89881 47.8881 9.02382 48.1118 9.24633C48.3356 9.46885 48.4614 9.77064 48.4614 10.0853C48.4614 20.8114 60.1443 27.5211 69.4883 22.1521C69.7611 21.9988 70.0835 21.9583 70.3861 22.0393C70.6886 22.1203 70.947 22.3164 71.1053 22.5852L75.8907 30.8196C76.0468 31.0913 76.0886 31.4133 76.007 31.7155C75.9254 32.0178 75.7271 32.2757 75.4551 32.4332C66.1111 37.7962 66.1111 51.2038 75.4551 56.5727C75.7255 56.7302 75.9227 56.9871 76.0042 57.2879C76.0857 57.5887 76.0449 57.9093 75.8907 58.1804L71.1053 66.4148C70.947 66.6836 70.6886 66.8797 70.3861 66.9607C70.0835 67.0417 69.7611 67.0012 69.4883 66.8479C60.1443 61.4789 48.4614 68.1827 48.4614 78.9028C48.4614 79.2165 48.3365 79.5174 48.114 79.7397C47.8915 79.9621 47.5894 80.0878 47.274 80.0893H37.7212C37.4047 80.0893 37.1011 79.9643 36.8773 79.7418C36.6535 79.5193 36.5278 79.2175 36.5278 78.9028C36.5278 68.1768 24.8448 61.473 15.5008 66.836C15.2275 66.9912 14.9037 67.0328 14.5997 66.9517C14.2957 66.8705 14.0363 66.6733 13.8779 66.4029L9.10443 58.1686C8.94972 57.8981 8.90805 57.578 8.98841 57.2773C9.06877 56.9766 9.26472 56.7193 9.53404 56.5609C18.878 51.1919 18.878 37.7844 9.53404 32.4154C9.2653 32.258 9.06922 32.0022 8.98781 31.7028C8.9064 31.4034 8.94612 31.0842 9.09847 30.8136L13.8779 22.5733C14.0373 22.3039 14.2971 22.108 14.601 22.028C14.9049 21.948 15.2283 21.9905 15.5008 22.1462C24.8448 27.5151 36.5278 20.8054 36.5278 10.0794C36.5278 9.42681 37.0588 8.89881 37.7152 8.89881ZM27.5776 10.0853C27.5776 4.50873 32.1124 0 37.7152 0H47.268C52.8768 0 57.4116 4.50873 57.4116 10.0853C57.4133 10.9691 57.6487 11.8368 58.094 12.6016C58.5393 13.3665 59.1789 14.0015 59.9488 14.4431C60.7187 14.8848 61.5919 15.1175 62.4807 15.1179C63.3695 15.1184 64.2429 14.8866 65.0132 14.4457C67.3417 13.1124 70.107 12.7522 72.7024 13.444C75.2977 14.1358 77.5109 15.8232 78.8562 18.1358L83.6416 26.3702C86.44 31.1933 84.7753 37.3513 79.9302 40.1336C79.1596 40.5763 78.5196 41.2129 78.0747 41.9793C77.6298 42.7457 77.3956 43.6151 77.3956 44.5C77.3956 45.3849 77.6298 46.2543 78.0747 47.0207C78.5196 47.7871 79.1596 48.4237 79.9302 48.8664C82.2562 50.2039 83.9533 52.4044 84.6491 54.9849C85.3449 57.5653 84.9826 60.3148 83.6416 62.6299L78.8562 70.8642C77.5109 73.1768 75.2977 74.8642 72.7024 75.556C70.107 76.2478 67.3417 75.8876 65.0132 74.5543C64.2429 74.1134 63.3695 73.8816 62.4807 73.8821C61.5919 73.8825 60.7187 74.1152 59.9488 74.5569C59.1789 74.9985 58.5393 75.6335 58.094 76.3984C57.6487 77.1632 57.4133 78.0309 57.4116 78.9147C57.4116 84.4853 52.8768 89 47.274 89H37.7212C35.032 88.9984 32.4534 87.9352 30.5524 86.044C28.6514 84.1528 27.5836 81.5884 27.5836 78.9147C27.5818 78.0309 27.3465 77.1632 26.9012 76.3984C26.4558 75.6335 25.8162 74.9985 25.0463 74.5569C24.2764 74.1152 23.4033 73.8825 22.5144 73.8821C21.6256 73.8816 20.7523 74.1134 19.9819 74.5543C17.6535 75.8876 14.8881 76.2478 12.2928 75.556C9.69746 74.8642 7.48425 73.1768 6.13894 70.8642L1.35358 62.6299C0.0125807 60.3148 -0.349778 57.5653 0.346036 54.9849C1.04185 52.4044 2.73898 50.2039 5.06492 48.8664C5.83419 48.4233 6.4728 47.7869 6.91675 47.0211C7.3607 46.2553 7.59439 45.3869 7.59439 44.503C7.59439 43.619 7.3607 42.7506 6.91675 41.9848C6.4728 41.219 5.83419 40.5827 5.06492 40.1396C2.73898 38.802 1.04185 36.6015 0.346036 34.0211C-0.349778 31.4406 0.0125807 28.6911 1.35358 26.3761L6.13297 18.1358C7.47828 15.8232 9.69149 14.1358 12.2868 13.444C14.8821 12.7522 17.6475 13.1124 19.9759 14.4457C20.7463 14.8866 21.6196 15.1184 22.5085 15.1179C23.3973 15.1175 24.2704 14.8848 25.0403 14.4431C25.8102 14.0015 26.4499 13.3665 26.8952 12.6016C27.3405 11.8368 27.5758 10.9691 27.5776 10.0853ZM51.4448 44.4941C51.4448 46.8542 50.5018 49.1176 48.8233 50.7865C47.1448 52.4553 44.8683 53.3929 42.4946 53.3929C40.1208 53.3929 37.8443 52.4553 36.1658 50.7865C34.4874 49.1176 33.5444 46.8542 33.5444 44.4941C33.5444 42.134 34.4874 39.8705 36.1658 38.2017C37.8443 36.5328 40.1208 35.5953 42.4946 35.5953C44.8683 35.5953 47.1448 36.5328 48.8233 38.2017C50.5018 39.8705 51.4448 42.134 51.4448 44.4941ZM60.395 44.4941C60.395 49.2143 58.509 53.7412 55.1521 57.0789C51.7951 60.4166 47.2421 62.2917 42.4946 62.2917C37.7471 62.2917 33.1941 60.4166 29.8371 57.0789C26.4801 53.7412 24.5942 49.2143 24.5942 44.4941C24.5942 39.7738 26.4801 35.2469 29.8371 31.9092C33.1941 28.5715 37.7471 26.6964 42.4946 26.6964C47.2421 26.6964 51.7951 28.5715 55.1521 31.9092C58.509 35.2469 60.395 39.7738 60.395 44.4941Z" fill="white"/>
</svg>
