<svg width="423" height="161" viewBox="0 0 423 161" fill="none" xmlns="http://www.w3.org/2000/svg">
<g filter="url(#filter0_d_135_2)">
<path d="M41.6541 64.4514L9.67568 1H74L99.7297 51.8343L127.665 1H142L106.346 65.3657L138.324 129H74L48.4541 77.9829L20.1514 129H6L41.6541 64.4514Z" fill="url(#paint0_linear_135_2)" shape-rendering="crispEdges"/>
<path d="M74.3076 0.5L74.4463 0.774414L99.748 50.7627L127.227 0.758789L127.369 0.5H142.849L142.438 1.24219L106.911 65.377L138.771 128.775L139.135 129.5H73.6914L73.5527 129.224L48.4307 79.0547L20.5889 129.242L20.4453 129.5H5.15234L5.5625 128.758L41.0889 64.4404L9.22949 1.22461L8.86426 0.5H74.3076Z" stroke="black" shape-rendering="crispEdges"/>
</g>
<path d="M173.056 130.44C166.592 130.44 160.896 129.032 155.968 126.216C151.104 123.336 147.296 119.368 144.544 114.312C141.856 109.256 140.512 103.432 140.512 96.84C140.512 91.976 141.312 87.528 142.912 83.496C144.576 79.4 146.848 75.848 149.728 72.84C152.672 69.832 156.096 67.496 160 65.832C163.968 64.168 168.288 63.336 172.96 63.336C175.584 63.336 178.528 63.656 181.792 64.296C185.056 64.872 188.288 66.088 191.488 67.944L191.872 81.864H185.92L184 70.728C182.272 69.768 180.576 69.096 178.912 68.712C177.312 68.328 175.744 68.136 174.208 68.136C169.92 68.136 166.016 69.224 162.496 71.4C158.976 73.576 156.16 76.808 154.048 81.096C152 85.32 150.976 90.568 150.976 96.84C150.976 103.112 151.936 108.392 153.856 112.68C155.776 116.968 158.432 120.2 161.824 122.376C165.28 124.552 169.184 125.64 173.536 125.64C175.392 125.64 177.28 125.448 179.2 125.064C181.184 124.616 183.104 123.944 184.96 123.048L186.88 111.912H192.832L192.448 125.832C189.504 127.432 186.368 128.584 183.04 129.288C179.776 130.056 176.448 130.44 173.056 130.44ZM198.963 129V125.544L206.643 124.2C206.707 121.576 206.739 119.016 206.739 116.52C206.803 113.96 206.835 111.4 206.835 108.84V66.696L198.963 65.736V62.376L213.939 58.056L215.283 58.824L214.899 72.456V108.84C214.899 111.4 214.899 113.96 214.899 116.52C214.963 119.08 215.027 121.64 215.091 124.2L222.771 125.544V129H198.963ZM264.155 129.96C261.851 129.96 259.931 129.288 258.395 127.944C256.859 126.6 255.899 124.808 255.515 122.568C252.891 125.128 250.587 127.048 248.603 128.328C246.619 129.608 244.219 130.248 241.403 130.248C237.883 130.248 234.843 129.256 232.283 127.272C229.787 125.224 228.539 122.216 228.539 118.248C228.539 116.392 228.955 114.664 229.787 113.064C230.683 111.464 232.283 109.896 234.587 108.36C236.891 106.824 240.187 105.288 244.475 103.752C245.947 103.24 247.643 102.696 249.563 102.12C251.483 101.544 253.403 101.032 255.323 100.584V98.184C255.323 93.512 254.619 90.408 253.211 88.872C251.803 87.336 249.499 86.568 246.299 86.568C245.595 86.568 244.795 86.6 243.899 86.664C243.067 86.728 242.139 86.888 241.115 87.144L239.291 93.384C238.395 96.456 236.731 97.992 234.299 97.992C231.611 97.992 230.107 96.68 229.787 94.056C230.683 90.408 232.795 87.528 236.123 85.416C239.515 83.24 243.643 82.152 248.507 82.152C253.563 82.152 257.307 83.432 259.739 85.992C262.171 88.488 263.387 92.776 263.387 98.856V119.304C263.387 121.352 263.707 122.824 264.347 123.72C264.987 124.552 265.819 124.968 266.843 124.968C267.675 124.968 268.379 124.776 268.955 124.392C269.531 124.008 270.075 123.496 270.587 122.856L272.507 124.968C271.355 126.824 270.075 128.136 268.667 128.904C267.323 129.608 265.819 129.96 264.155 129.96ZM237.083 116.808C237.083 119.368 237.819 121.192 239.291 122.28C240.763 123.368 242.587 123.912 244.763 123.912C245.723 123.912 246.619 123.784 247.451 123.528C248.347 123.272 249.403 122.792 250.619 122.088C251.835 121.32 253.403 120.232 255.323 118.824V104.136C253.659 104.584 252.027 105.096 250.427 105.672C248.827 106.184 247.515 106.632 246.491 107.016C243.739 108.104 241.691 109.224 240.347 110.376C239.003 111.528 238.107 112.648 237.659 113.736C237.275 114.824 237.083 115.848 237.083 116.808ZM276.626 129V125.544L283.538 124.296C283.602 121.864 283.634 119.24 283.634 116.424C283.698 113.544 283.73 111.016 283.73 108.84V104.232C283.73 101.608 283.698 99.432 283.634 97.704C283.634 95.976 283.57 94.152 283.442 92.232L275.858 91.368V88.008L289.298 82.152L290.738 83.112L291.794 94.44C293.394 90.6 295.442 87.592 297.938 85.416C300.498 83.24 303.058 82.152 305.618 82.152C307.09 82.152 308.466 82.472 309.746 83.112C311.026 83.752 311.954 84.616 312.53 85.704C312.53 90.376 310.642 92.712 306.866 92.712C305.778 92.712 304.754 92.52 303.794 92.136C302.834 91.688 301.906 91.08 301.01 90.312L299.858 89.256C297.938 90.664 296.338 92.392 295.058 94.44C293.778 96.488 292.722 98.888 291.89 101.64V108.84C291.89 110.952 291.89 113.416 291.89 116.232C291.954 119.048 292.018 121.672 292.082 124.104L299.954 125.544V129H276.626ZM316.548 129V125.544L323.748 124.2C323.812 121.768 323.844 119.144 323.844 116.328C323.908 113.448 323.94 110.952 323.94 108.84V104.328C323.94 101.704 323.908 99.528 323.844 97.8C323.844 96.008 323.78 94.152 323.652 92.232L315.972 91.368V88.008L330.756 82.152L332.196 83.112L331.908 96.168V108.84C331.908 110.952 331.908 113.448 331.908 116.328C331.972 119.144 332.036 121.768 332.1 124.2L338.82 125.544V129H316.548ZM327.876 71.592C326.084 71.592 324.548 71.016 323.268 69.864C322.052 68.712 321.444 67.24 321.444 65.448C321.444 63.592 322.052 62.12 323.268 61.032C324.548 59.88 326.084 59.304 327.876 59.304C329.668 59.304 331.172 59.88 332.388 61.032C333.668 62.12 334.308 63.592 334.308 65.448C334.308 67.24 333.668 68.712 332.388 69.864C331.172 71.016 329.668 71.592 327.876 71.592ZM361.461 130.248C358.133 130.248 355.477 129.352 353.493 127.56C351.509 125.768 350.517 123.016 350.517 119.304C350.517 118.088 350.517 116.904 350.517 115.752C350.581 114.536 350.613 113 350.613 111.144V88.488H342.645V84.264L351.189 83.208L353.685 70.344H359.445L358.869 83.4H371.829V88.488H358.773V118.248C358.773 120.68 359.253 122.472 360.213 123.624C361.173 124.712 362.453 125.256 364.053 125.256C365.141 125.256 366.165 125.032 367.125 124.584C368.149 124.136 369.269 123.496 370.485 122.664L372.789 125.16C370.165 128.552 366.389 130.248 361.461 130.248ZM403.432 86.856V83.4H422.152V86.856L416.968 87.912L401.512 128.712C398.312 137.224 395.208 143.368 392.2 147.144C389.256 150.984 385.8 152.904 381.832 152.904C379.464 152.904 377.384 152.296 375.592 151.08C373.864 149.928 373 148.424 373 146.568C373.32 145.16 374.088 144.104 375.304 143.4C376.584 142.696 377.96 142.344 379.432 142.344C380.712 142.344 381.896 142.6 382.984 143.112C384.072 143.688 385.256 144.648 386.536 145.992L387.016 146.472C389.064 144.744 390.792 142.632 392.2 140.136C393.608 137.704 394.76 135.208 395.656 132.648L396.04 131.496L378.664 87.624L373.384 86.856V83.4H396.424V86.952L387.976 87.912L399.976 120.648L411.784 88.008L403.432 86.856Z" fill="black"/>
<defs>
<filter id="filter0_d_135_2" x="0.305237" y="0" width="147.392" height="138" filterUnits="userSpaceOnUse" color-interpolation-filters="sRGB">
<feFlood flood-opacity="0" result="BackgroundImageFix"/>
<feColorMatrix in="SourceAlpha" type="matrix" values="0 0 0 0 0 0 0 0 0 0 0 0 0 0 0 0 0 0 127 0" result="hardAlpha"/>
<feOffset dy="4"/>
<feGaussianBlur stdDeviation="2"/>
<feComposite in2="hardAlpha" operator="out"/>
<feColorMatrix type="matrix" values="0 0 0 0 0 0 0 0 0 0 0 0 0 0 0 0 0 0 0.25 0"/>
<feBlend mode="normal" in2="BackgroundImageFix" result="effect1_dropShadow_135_2"/>
<feBlend mode="normal" in="SourceGraphic" in2="effect1_dropShadow_135_2" result="shape"/>
</filter>
<linearGradient id="paint0_linear_135_2" x1="11.4432" y1="-19.9286" x2="174.984" y2="192.479" gradientUnits="userSpaceOnUse">
<stop stop-color="white" stop-opacity="0.95"/>
<stop offset="0.388387" stop-color="#5D34FF" stop-opacity="0.975"/>
<stop offset="0.632949" stop-color="#20009E" stop-opacity="0.975765"/>
<stop offset="0.882418" stop-color="#16006E" stop-opacity="0.977015"/>
<stop offset="0.943715" stop-color="#0E0045"/>
</linearGradient>
</defs>
</svg>
